<?xml version="1.0" encoding="utf-8"?>
<!-- Generator: Adobe Illustrator 16.0.0, SVG Export Plug-In . SVG Version: 6.00 Build 0)  -->
<!DOCTYPE svg PUBLIC "-//W3C//DTD SVG 1.1//EN" "http://www.w3.org/Graphics/SVG/1.1/DTD/svg11.dtd">
<svg version="1.1" id="Layer_1" xmlns="http://www.w3.org/2000/svg" xmlns:xlink="http://www.w3.org/1999/xlink" x="0px" y="0px"
	 width="574.144px" height="356.722px" viewBox="0 0 574.144 356.722" enable-background="new 0 0 574.144 356.722"
	 xml:space="preserve">
<linearGradient id="SEASON_field_2_" gradientUnits="userSpaceOnUse" x1="6.4883" y1="283.2622" x2="535.9043" y2="283.2622" gradientTransform="matrix(1 -0.1051 -0.1405 1.0148 40.1804 26.2459)">
	<stop  offset="0" style="stop-color:#139FDC;stop-opacity:0"/>
	<stop  offset="0.6" style="stop-color:#139FDC"/>
	<stop  offset="1" style="stop-color:#0279BF"/>
</linearGradient>
<path id="SEASON_field_1_" fill="url(#SEASON_field_2_)" d="M531.608,291.147c-0.843,6.081-6.385,11.523-12.378,12.152
	l-507.71,53.363c-5.993,0.63-10.169-3.791-9.327-9.873l9.354-67.542c0.842-6.082,6.383-11.523,12.376-12.153l507.71-53.363
	c5.993-0.629,10.17,3.791,9.327,9.873L531.608,291.147z"/>
<linearGradient id="WINTER_stroke_2_" gradientUnits="userSpaceOnUse" x1="0.3413" y1="150.4292" x2="574.1436" y2="150.4292">
	<stop  offset="0.5" style="stop-color:#139FDC"/>
	<stop  offset="1" style="stop-color:#0279BF"/>
</linearGradient>
<path id="WINTER_stroke_1_" fill="url(#WINTER_stroke_2_)" d="M550.222,138.557c3.622-2.901,6.949-6.286,9.93-10.111
	c4.316-5.532,7.779-12.083,10.289-19.466c2.458-7.232,3.703-15.422,3.703-24.345c0-8.403-1.434-15.878-4.262-22.22
	c-2.955-6.609-7.119-11.988-12.382-15.999c-5.086-3.874-11.098-5.542-17.871-6.934c-6.159-1.26-12.706-1.537-19.47-0.827
	c-4.803,0.505-10.248,1.36-16.185,2.542c-4.008,0.8-8.017,0.901-11.983,1.417l0.016-0.084l-20.431,2.147l-43.775,4.601
	l-13.868,1.458l-7.688,0.808l-12.602,1.324l-1.577,0.166l-76.16,8.005l-7.989,0.839l-12.436,1.307l-1.723,0.181l-18.672,1.962
	l-14.146,1.487l-2.577,14.181l-4.682,25.767l-11.708-28.192L237.708,68.3l-11.537,1.213l-14.923,1.568l-2.157,0.227l0.007-0.042
	l-20.401,2.145l-9.197,0.967l0.034-0.088l-25.325,2.662l-23.214,2.439l-11.89,1.25l-4.083,11.667l-3.97,11.341l-0.393-6.103
	l-1.024-15.91l-15.949,1.676l-14.591,1.534l-11.083,1.165l-4.476,10.673l-5.697,13.583l-0.041-6.181l-0.112-16.991l-16.895,1.776
	l-22.717,2.388L0.341,93.123l0.739,17.753l5.638,135.378l0.68,16.332l16.313-1.715l15.089-1.586l11.06-1.162l4.486-10.646
	l11.016-26.139l1.59,19.274l1.285,15.579l15.666-1.646l15.089-1.586l11.422-1.201l4.321-11.096l17.004-43.66l-5.705,31.969
	l-3.671,20.573l20.401-2.144l21.39-2.249l1.794-0.188l12.384-1.302l8.041-0.845l20.395-2.145l14.191-1.49l2.542-14.229l4.608-25.802
	l11.777,28.293l4.27,9.258l11.528-1.212l14.923-1.568l14.163-1.489l10.377-1.049l20.396-2.143l21.39-2.248l14.162-1.488
	l10.206-1.073l20.401-2.145l21.556-2.266l41.435-4.354l3.17-0.334l14.258-1.498l2.986-0.314l21.556-2.266l14.207-1.492l2.529-14.246
	l1.39-7.827l2.906,9.282l3.66,11.688l12.616-1.325l23.878-2.51l23.201-2.439l-6.981-21.391L550.222,138.557z"/>
<linearGradient id="WINTER_tint_1_" gradientUnits="userSpaceOnUse" x1="-2.5342" y1="115.5273" x2="572.7247" y2="189.3517">
	<stop  offset="0.1" style="stop-color:#FFFFFF;stop-opacity:0.2"/>
	<stop  offset="0.9" style="stop-color:#0279BF"/>
</linearGradient>
<path id="WINTER_tint" display="none" fill="url(#WINTER_tint_1_)" d="M560.151,128.445c4.316-5.532,7.779-12.083,10.289-19.466
	c2.458-7.232,3.703-15.422,3.703-24.345c0-8.403-1.434-15.878-4.262-22.22c-2.955-6.609-7.119-11.988-12.382-15.999
	c-5.086-3.874-11.098-5.542-17.871-6.934c-6.159-1.26-12.706-1.537-19.47-0.827c-4.803,0.505-10.248,1.36-16.185,2.542
	c-4.008,0.8-8.017,0.901-11.983,1.417l0.016-0.084l-20.431,2.147l-43.775,4.601l-13.868,1.458l-7.688,0.808l-12.602,1.324
	l-1.577,0.166l-76.16,8.005l-7.989,0.839l-12.436,1.307l-1.723,0.181l-18.672,1.962l-14.146,1.487l-2.577,14.181l-4.682,25.767
	l-11.708-28.192L237.708,68.3l-11.537,1.213l-14.923,1.568l-2.157,0.227l0.007-0.042l-20.401,2.145l-9.197,0.967l0.034-0.088
	l-25.325,2.662l-23.214,2.439l-11.89,1.25l-4.083,11.667l-3.97,11.341l-0.393-6.103l-1.024-15.91l-15.949,1.676l-14.591,1.534
	l-11.083,1.165l-4.476,10.673l-5.697,13.583l-0.041-6.181l-0.112-16.991l-16.895,1.776l-22.717,2.388L0.341,93.123l0.739,17.753
	l5.638,135.378l0.68,16.332l16.313-1.715l15.089-1.586l11.06-1.162l4.486-10.646l11.016-26.139l1.59,19.274l1.285,15.579
	l15.666-1.646l15.089-1.586l11.422-1.201l4.321-11.096l17.004-43.66l-5.705,31.969l-3.671,20.573l20.401-2.144l21.39-2.249
	l1.794-0.188l12.384-1.302l8.041-0.845l20.395-2.145l14.191-1.49l2.542-14.229l4.608-25.802l11.777,28.293l4.27,9.258l11.528-1.212
	l14.923-1.568l14.163-1.489l10.377-1.049l20.396-2.143l21.39-2.248l14.162-1.488l10.206-1.073l20.401-2.145l21.556-2.266
	l41.435-4.354l3.17-0.334l14.258-1.498l2.986-0.314l21.556-2.266l14.207-1.492l2.529-14.246l1.39-7.827l2.906,9.282l3.66,11.688
	l12.616-1.325l23.878-2.51l23.201-2.439l-6.981-21.391l-13.849-42.438C553.844,135.655,557.171,132.271,560.151,128.445z"/>
<linearGradient id="SEASON_tint_1_" gradientUnits="userSpaceOnUse" x1="14.334" y1="252.1841" x2="528.8227" y2="318.2097">
	<stop  offset="0.5481" style="stop-color:#FFFFFF;stop-opacity:0"/>
	<stop  offset="0.5906" style="stop-color:#D4E8F4;stop-opacity:0.094"/>
	<stop  offset="0.6514" style="stop-color:#9DCBE6;stop-opacity:0.2285"/>
	<stop  offset="0.7127" style="stop-color:#6EB2DA;stop-opacity:0.3642"/>
	<stop  offset="0.7731" style="stop-color:#479DD0;stop-opacity:0.498"/>
	<stop  offset="0.8327" style="stop-color:#298EC9;stop-opacity:0.6297"/>
	<stop  offset="0.8909" style="stop-color:#1382C3;stop-opacity:0.7586"/>
	<stop  offset="0.9474" style="stop-color:#067BC0;stop-opacity:0.8836"/>
	<stop  offset="1" style="stop-color:#0279BF"/>
</linearGradient>
<path id="SEASON_tint" display="none" fill="url(#SEASON_tint_1_)" d="M531.635,213.731l-507.71,53.363
	c-5.993,0.63-11.534,6.071-12.376,12.153L2.194,346.79c-0.842,6.082,3.333,10.503,9.327,9.873l507.71-53.363
	c5.993-0.629,11.535-6.071,12.378-12.152l9.354-67.543C541.805,217.522,537.628,213.102,531.635,213.731z"/>
<text transform="matrix(1 -0.1051 0 1 22.9351 83.0557)" fill="#FFFFFF" font-family="'PTSans-BoldItalic'" font-size="65.6753">HORIZON</text>
<text transform="matrix(0.8652 -0.0909 0 1 -0.0146 245.3853)" fill="#FFFFFF" font-family="'PTSans-BoldItalic'" font-size="191.6394">WINTER</text>
<text transform="matrix(0.9253 -0.0973 0 1 252.0728 317.0923)" fill="#FFFFFF" font-family="'PTSans-BoldItalic'" font-size="85.9211">SEASON</text>
</svg>
