<?xml version="1.0" encoding="utf-8"?>
<!-- Generator: Adobe Illustrator 16.0.0, SVG Export Plug-In . SVG Version: 6.00 Build 0)  -->
<!DOCTYPE svg PUBLIC "-//W3C//DTD SVG 1.1//EN" "http://www.w3.org/Graphics/SVG/1.1/DTD/svg11.dtd">
<svg version="1.1" id="Layer_1" xmlns="http://www.w3.org/2000/svg" xmlns:xlink="http://www.w3.org/1999/xlink" x="0px" y="0px"
	 width="574.144px" height="356.722px" viewBox="0 0 574.144 356.722" enable-background="new 0 0 574.144 356.722"
	 xml:space="preserve">
<linearGradient id="SEASON_field_2_" gradientUnits="userSpaceOnUse" x1="6.4883" y1="283.2622" x2="535.9043" y2="283.2622" gradientTransform="matrix(1 -0.1051 -0.1405 1.0148 40.1804 26.2459)">
	<stop  offset="0" style="stop-color:#139FDC;stop-opacity:0"/>
	<stop  offset="0.6" style="stop-color:#139FDC"/>
	<stop  offset="1" style="stop-color:#0279BF"/>
</linearGradient>
<path id="SEASON_field_1_" fill="url(#SEASON_field_2_)" d="M531.608,291.147c-0.843,6.081-6.385,11.523-12.378,12.152
	l-507.71,53.363c-5.993,0.63-10.169-3.791-9.327-9.873l9.354-67.542c0.842-6.082,6.383-11.523,12.376-12.153l507.71-53.363
	c5.993-0.629,10.17,3.791,9.327,9.873L531.608,291.147z"/>
<linearGradient id="WINTER_stroke_2_" gradientUnits="userSpaceOnUse" x1="0.3413" y1="150.4292" x2="574.1436" y2="150.4292">
	<stop  offset="0.5" style="stop-color:#139FDC"/>
	<stop  offset="1" style="stop-color:#0279BF"/>
</linearGradient>
<path id="WINTER_stroke_1_" fill="url(#WINTER_stroke_2_)" d="M550.222,138.557c3.622-2.901,6.949-6.286,9.93-10.111
	c4.316-5.532,7.779-12.083,10.289-19.466c2.458-7.232,3.703-15.422,3.703-24.345c0-8.403-1.434-15.878-4.262-22.22
	c-2.955-6.609-7.119-11.988-12.382-15.999c-5.086-3.874-11.098-5.542-17.871-6.934c-6.159-1.26-12.706-1.537-19.47-0.827
	c-4.803,0.505-10.248,1.36-16.185,2.542c-4.008,0.8-8.017,0.901-11.983,1.417l0.016-0.084l-20.431,2.147l-43.775,4.601
	l-13.868,1.458l-7.688,0.808l-12.602,1.324l-1.577,0.166l-76.16,8.005l-7.989,0.839l-12.436,1.307l-1.723,0.181l-18.672,1.962
	l-14.146,1.487l-2.577,14.181l-4.682,25.767l-11.708-28.192L237.708,68.3l-11.537,1.213l-14.923,1.568l-2.157,0.227l0.007-0.042
	l-20.401,2.145l-9.197,0.967l0.034-0.088l-25.325,2.662l-23.214,2.439l-11.89,1.25l-4.083,11.667l-3.97,11.341l-0.393-6.103
	l-1.024-15.91l-15.949,1.676l-14.591,1.534l-11.083,1.165l-4.476,10.673l-5.697,13.583l-0.041-6.181l-0.112-16.991l-16.895,1.776
	l-22.717,2.388L0.341,93.123l0.739,17.753l5.638,135.378l0.68,16.332l16.313-1.715l15.089-1.586l11.06-1.162l4.486-10.646
	l11.016-26.139l1.59,19.274l1.285,15.579l15.666-1.646l15.089-1.586l11.422-1.201l4.321-11.096l17.004-43.66l-5.705,31.969
	l-3.671,20.573l20.401-2.144l21.39-2.249l1.794-0.188l12.384-1.302l8.041-0.845l20.395-2.145l14.191-1.49l2.542-14.229l4.608-25.802
	l11.777,28.293l4.27,9.258l11.528-1.212l14.923-1.568l14.163-1.489l10.377-1.049l20.396-2.143l21.39-2.248l14.162-1.488
	l10.206-1.073l20.401-2.145l21.556-2.266l41.435-4.354l3.17-0.334l14.258-1.498l2.986-0.314l21.556-2.266l14.207-1.492l2.529-14.246
	l1.39-7.827l2.906,9.282l3.66,11.688l12.616-1.325l23.878-2.51l23.201-2.439l-6.981-21.391L550.222,138.557z"/>
<g>
	<path fill="#FFFFFF" d="M52.817,60.672l-15.959,1.677l-4.072,19.671l-8.538,0.897l9.72-46.994l8.538-0.897l-3.941,19.132
		l15.959-1.678l3.941-19.132l8.538-0.897l-9.72,46.995l-8.538,0.897L52.817,60.672z"/>
	<path fill="#FFFFFF" d="M67.725,61.141c0-4.071,0.559-7.973,1.675-11.703c1.117-3.729,2.703-7.047,4.761-9.958
		c2.058-2.908,4.542-5.292,7.454-7.153c2.911-1.86,6.163-2.979,9.753-3.357c2.365-0.249,4.499-0.122,6.403,0.377
		c1.904,0.501,3.524,1.415,4.86,2.74c1.335,1.328,2.375,3.068,3.12,5.222c0.745,2.155,1.117,4.765,1.117,7.83
		c0,4.115-0.558,8.049-1.675,11.8c-1.116,3.752-2.692,7.103-4.729,10.053c-2.036,2.951-4.466,5.362-7.29,7.235
		c-2.824,1.874-5.943,2.99-9.359,3.349c-5.167,0.543-9.129-0.562-11.887-3.315C69.17,71.509,67.769,67.136,67.725,61.141z
		 M76.723,59.933c0,3.152,0.602,5.608,1.806,7.363c1.204,1.756,3.185,2.49,5.943,2.2c2.013-0.211,3.842-1.005,5.484-2.383
		c1.642-1.376,3.054-3.145,4.236-5.305c1.182-2.161,2.09-4.587,2.726-7.281c0.634-2.694,0.952-5.463,0.952-8.31
		c0-3.458-0.679-5.905-2.036-7.339c-1.358-1.433-3.218-2.026-5.583-1.777c-1.97,0.207-3.777,0.966-5.418,2.277
		c-1.642,1.312-3.065,3.004-4.269,5.079c-1.205,2.075-2.146,4.451-2.824,7.127C77.062,54.26,76.723,57.043,76.723,59.933z"/>
	<path fill="#FFFFFF" d="M117.179,27.638c2.102-0.616,4.225-1.123,6.37-1.524c2.145-0.399,4.072-0.691,5.78-0.871
		c2.013-0.211,3.918-0.17,5.713,0.123c1.795,0.293,3.35,0.862,4.663,1.71c1.313,0.847,2.353,2.008,3.12,3.481
		c0.765,1.475,1.149,3.261,1.149,5.363c0,2.408-0.361,4.537-1.083,6.386s-1.675,3.438-2.857,4.766
		c-1.183,1.329-2.528,2.411-4.039,3.249c-1.51,0.838-3.054,1.448-4.63,1.833l2.562,1.767l6.371,16.8l-9.457,0.994l-6.305-17.333
		l-4.532-0.377l-3.94,19.263l-8.538,0.897L117.179,27.638z M121.316,47.758l3.481-0.366c1.27-0.133,2.518-0.385,3.744-0.754
		c1.225-0.369,2.309-0.921,3.251-1.655c0.94-0.733,1.708-1.658,2.298-2.771c0.591-1.113,0.887-2.479,0.887-4.099
		c0-1.488-0.504-2.716-1.511-3.683c-1.007-0.966-2.626-1.333-4.86-1.099c-0.876,0.092-1.697,0.211-2.462,0.357
		c-0.767,0.146-1.412,0.291-1.938,0.433L121.316,47.758z"/>
	<path fill="#FFFFFF" d="M156.584,23.036l8.472-0.89l-9.72,46.994l-8.472,0.891L156.584,23.036z"/>
	<path fill="#FFFFFF" d="M163.809,60.236l23.643-29.805l3.809-3.027l-21.082,2.216l1.642-8.185l30.277-3.182l-1.642,8.185
		l-23.774,30.016l-3.678,2.816l21.082-2.216l-1.708,8.192l-30.276,3.182L163.809,60.236z"/>
	<path fill="#FFFFFF" d="M199.141,47.329c0-4.071,0.559-7.973,1.675-11.703c1.117-3.729,2.703-7.048,4.761-9.958
		c2.058-2.909,4.542-5.292,7.454-7.153c2.911-1.86,6.163-2.98,9.753-3.357c2.365-0.249,4.499-0.121,6.403,0.378
		c1.904,0.501,3.524,1.415,4.86,2.74c1.336,1.327,2.375,3.068,3.119,5.222c0.744,2.155,1.117,4.766,1.117,7.83
		c0,4.115-0.557,8.049-1.674,11.8c-1.117,3.752-2.692,7.104-4.729,10.053c-2.036,2.952-4.466,5.362-7.29,7.235
		c-2.824,1.874-5.943,2.99-9.359,3.349c-5.167,0.543-9.129-0.562-11.887-3.315C200.586,57.696,199.185,53.323,199.141,47.329z
		 M208.139,46.12c0,3.152,0.602,5.608,1.806,7.363c1.204,1.756,3.185,2.489,5.943,2.2c2.013-0.212,3.842-1.005,5.484-2.383
		c1.642-1.375,3.054-3.144,4.236-5.305c1.182-2.16,2.09-4.587,2.726-7.28c0.634-2.695,0.952-5.463,0.952-8.31
		c0-3.458-0.679-5.905-2.036-7.339c-1.358-1.434-3.218-2.026-5.583-1.777c-1.97,0.207-3.777,0.966-5.418,2.277
		c-1.642,1.311-3.065,3.004-4.269,5.079c-1.205,2.075-2.146,4.451-2.824,7.127C208.478,40.448,208.139,43.23,208.139,46.12z"/>
	<path fill="#FFFFFF" d="M255.162,34.61l-2.167-7.128l-0.329,0.035l-0.59,7.417l-5.057,24.569l-8.079,0.849l9.852-47.336
		l5.911-0.621l11.296,23.375l2.036,6.944l0.394-0.042l0.459-7.207l5.188-24.78l8.079-0.849l-9.853,47.336l-5.911,0.622
		L255.162,34.61z"/>
</g>
<g>
	<path fill="#FFFFFF" d="M41.273,181.637l-2.321,24.008l0.829-0.087l6.467-24.826l32.832-77.808l14.592-1.534l4.809,74.234
		l-2.156,23.99l0.829-0.087l6.633-24.844l27.193-77.215l23.214-2.44L98.977,235.938l-15.089,1.586l-6.135-73.902l1.327-20.645
		l-0.995,0.104l-6.301,21.359l-32.997,77.824l-15.089,1.586l-5.638-134.513l22.717-2.388L41.273,181.637z"/>
	<path fill="#FFFFFF" d="M167.291,93.653l21.39-2.249L164.14,228.131l-21.39,2.248L167.291,93.653z"/>
	<path fill="#FFFFFF" d="M227.316,151.352l-5.472-20.889l-0.83,0.087l-1.492,21.621l-12.768,71.481l-20.396,2.145l24.873-137.72
		l14.923-1.568l28.521,68.675l5.14,20.348l0.995-0.104l1.162-21.011l13.1-72.092l20.396-2.144l-24.873,137.72l-14.924,1.568
		L227.316,151.352z"/>
	<path fill="#FFFFFF" d="M389.481,93.679l-32.168,3.381l-20.395,112.911l-21.391,2.248l20.229-112.894l-32.168,3.381l4.311-23.833
		l85.727-9.01L389.481,93.679z"/>
	<path fill="#FFFFFF" d="M406.229,68.539l21.555-2.266l43.775-4.601l-4.312,23.833l-43.775,4.601l-5.803,31.847l39.962-4.2
		l-4.478,23.851l-39.63,4.165l-6.135,33.416l44.604-4.688l-4.145,23.815L403.243,203l-21.555,2.266L406.229,68.539z"/>
	<path fill="#FFFFFF" d="M489.466,61.132c5.306-1.708,10.667-3.101,16.084-4.183c5.415-1.078,10.28-1.847,14.592-2.3
		c5.083-0.534,9.892-0.335,14.425,0.592c4.532,0.931,8.458,2.657,11.773,5.183c3.316,2.526,5.94,5.958,7.877,10.287
		c1.933,4.333,2.901,9.564,2.901,15.697c0,7.027-0.912,13.223-2.735,18.589c-1.824,5.365-4.229,9.963-7.214,13.789
		c-2.984,3.83-6.384,6.932-10.197,9.312c-3.814,2.383-7.711,4.102-11.69,5.158l6.467,5.261l16.085,49.286l-23.878,2.51
		l-15.918-50.836l-11.441-1.29l-9.949,56.046l-21.556,2.266L489.466,61.132z M499.912,120.017l8.788-0.924
		c3.204-0.337,6.355-1.018,9.451-2.047c3.094-1.026,5.829-2.592,8.208-4.695c2.375-2.101,4.311-4.765,5.804-7.988
		c1.492-3.223,2.238-7.197,2.238-11.926c0-4.342-1.271-7.944-3.813-10.81c-2.545-2.862-6.633-3.998-12.271-3.405
		c-2.212,0.232-4.285,0.546-6.219,0.94c-1.935,0.395-3.564,0.791-4.891,1.185L499.912,120.017z"/>
</g>
<g>
	<path fill="#FFFFFF" d="M291.981,264.868c-1.008-0.601-2.492-1.164-4.452-1.693c-1.962-0.529-4.134-0.669-6.519-0.419
		c-1.22,0.129-2.413,0.384-3.578,0.766c-1.167,0.382-2.2,0.908-3.1,1.578c-0.902,0.671-1.618,1.495-2.146,2.472
		c-0.531,0.977-0.795,2.1-0.795,3.365c0,1.67,0.477,3.03,1.431,4.083c0.955,1.051,2.159,2.005,3.618,2.858
		c1.457,0.855,3.021,1.71,4.689,2.566c1.67,0.854,3.232,1.894,4.691,3.115c1.457,1.222,2.663,2.741,3.617,4.56
		c0.954,1.82,1.431,4.132,1.431,6.938c0,3.38-0.543,6.344-1.629,8.893c-1.087,2.55-2.625,4.7-4.611,6.456
		c-1.987,1.755-4.373,3.138-7.155,4.146c-2.783,1.009-5.871,1.691-9.261,2.048c-1.856,0.195-3.618,0.265-5.288,0.212
		c-1.669-0.054-3.219-0.178-4.65-0.371c-1.432-0.192-2.691-0.447-3.776-0.763c-1.087-0.315-1.948-0.639-2.584-0.975l5.327-10.526
		c0.528,0.298,1.218,0.606,2.067,0.928c0.847,0.322,1.815,0.604,2.902,0.841c1.085,0.237,2.266,0.407,3.537,0.509
		c1.272,0.101,2.545,0.084,3.816-0.049c1.483-0.156,2.889-0.433,4.214-0.832c1.324-0.398,2.477-0.952,3.458-1.658
		c0.981-0.708,1.75-1.552,2.305-2.531c0.557-0.979,0.836-2.162,0.836-3.545c0-1.555-0.478-2.829-1.432-3.822
		c-0.954-0.993-2.16-1.904-3.617-2.73c-1.458-0.825-3.021-1.681-4.691-2.565c-1.669-0.884-3.233-1.965-4.69-3.244
		c-1.458-1.278-2.663-2.885-3.618-4.818c-0.954-1.932-1.431-4.36-1.431-7.282c0-3.321,0.543-6.213,1.63-8.677
		c1.085-2.462,2.556-4.535,4.412-6.221c1.855-1.684,4.028-3.001,6.519-3.95c2.491-0.949,5.168-1.574,8.03-1.875
		c1.537-0.161,3.073-0.237,4.61-0.227c1.538,0.01,2.994,0.102,4.373,0.271c1.378,0.171,2.65,0.409,3.816,0.716
		c1.165,0.308,2.146,0.676,2.941,1.108L291.981,264.868z"/>
	<path fill="#FFFFFF" d="M305.973,251.283l10.335-1.087l20.987-2.205l-2.066,10.699l-20.987,2.206l-2.783,14.297l19.159-2.014
		l-2.146,10.708l-19.001,1.997l-2.94,15.002l21.385-2.248l-1.986,10.691l-21.387,2.248l-10.334,1.086L305.973,251.283z"/>
	<path fill="#FFFFFF" d="M363.37,292.077l-16.217,1.705l-6.599,14.011l-10.972,1.153l30.926-63.825l7.632-0.802l7.235,59.813
		l-10.416,1.095L363.37,292.077z M351.684,283.853l11.29-1.187l-1.272-13.27l0.079-9.46l-0.396,0.042l-3.18,9.871L351.684,283.853z"
		/>
	<path fill="#FFFFFF" d="M418.781,251.54c-1.009-0.6-2.492-1.163-4.452-1.693c-1.962-0.528-4.135-0.668-6.519-0.418
		c-1.22,0.128-2.413,0.384-3.578,0.766c-1.167,0.382-2.2,0.908-3.101,1.578c-0.902,0.671-1.618,1.495-2.146,2.472
		c-0.531,0.977-0.795,2.099-0.795,3.364c0,1.67,0.477,3.031,1.431,4.084c0.954,1.051,2.159,2.005,3.617,2.858
		c1.457,0.854,3.021,1.71,4.69,2.565s3.232,1.895,4.69,3.115c1.457,1.223,2.663,2.742,3.617,4.561
		c0.955,1.819,1.432,4.132,1.432,6.938c0,3.38-0.544,6.344-1.63,8.893c-1.087,2.55-2.624,4.7-4.611,6.456
		c-1.987,1.755-4.372,3.137-7.154,4.146c-2.783,1.008-5.871,1.691-9.262,2.048c-1.856,0.195-3.618,0.265-5.287,0.212
		c-1.67-0.054-3.22-0.178-4.65-0.371c-1.432-0.193-2.691-0.447-3.776-0.763c-1.088-0.315-1.948-0.64-2.584-0.975l5.327-10.527
		c0.528,0.299,1.218,0.606,2.066,0.929c0.847,0.322,1.815,0.604,2.902,0.841c1.085,0.237,2.266,0.407,3.537,0.509
		c1.272,0.101,2.544,0.084,3.815-0.05c1.483-0.155,2.889-0.433,4.214-0.831c1.324-0.398,2.477-0.952,3.458-1.658
		c0.98-0.708,1.749-1.553,2.306-2.532c0.557-0.979,0.835-2.161,0.835-3.544c0-1.555-0.477-2.829-1.432-3.822
		c-0.953-0.994-2.16-1.904-3.616-2.73c-1.459-0.825-3.021-1.681-4.691-2.565c-1.669-0.885-3.233-1.965-4.689-3.244
		c-1.459-1.278-2.663-2.885-3.618-4.818c-0.954-1.932-1.431-4.36-1.431-7.282c0-3.321,0.543-6.214,1.63-8.677
		c1.086-2.462,2.557-4.536,4.412-6.221c1.855-1.684,4.027-3.001,6.519-3.95s5.168-1.574,8.03-1.875
		c1.536-0.162,3.073-0.237,4.61-0.227c1.537,0.01,2.994,0.101,4.372,0.271c1.378,0.171,2.65,0.409,3.817,0.716
		c1.164,0.308,2.146,0.676,2.94,1.108L418.781,251.54z"/>
	<path fill="#FFFFFF" d="M424.027,276.507c0-5.327,0.675-10.425,2.027-15.292c1.352-4.868,3.271-9.194,5.764-12.979
		c2.49-3.785,5.497-6.879,9.022-9.283c3.524-2.402,7.46-3.834,11.807-4.291c2.861-0.301,5.445-0.113,7.751,0.561
		c2.306,0.675,4.266,1.886,5.883,3.635c1.616,1.75,2.874,4.037,3.775,6.863c0.901,2.827,1.353,6.245,1.353,10.254
		c0,5.386-0.676,10.526-2.027,15.421c-1.352,4.898-3.26,9.266-5.724,13.104c-2.466,3.84-5.406,6.97-8.825,9.391
		c-3.418,2.422-7.194,3.85-11.329,4.284c-6.253,0.658-11.05-0.828-14.39-4.459C425.775,290.086,424.079,284.35,424.027,276.507z
		 M434.919,275.018c0,4.125,0.728,7.343,2.186,9.652c1.457,2.31,3.856,3.289,7.195,2.938c2.437-0.256,4.65-1.276,6.638-3.062
		c1.987-1.783,3.696-4.082,5.128-6.896c1.431-2.814,2.53-5.979,3.3-9.498c0.767-3.517,1.152-7.137,1.152-10.861
		c0-4.523-0.822-7.731-2.465-9.621c-1.644-1.89-3.896-2.684-6.758-2.383c-2.384,0.25-4.57,1.226-6.559,2.924
		c-1.987,1.698-3.71,3.898-5.167,6.6c-1.458,2.703-2.598,5.801-3.418,9.296C435.328,267.601,434.919,271.239,434.919,275.018z"/>
	<path fill="#FFFFFF" d="M491.841,260.444l-2.625-9.348l-0.396,0.042l-0.716,9.698l-6.122,32.091l-9.778,1.028l11.926-61.828
		l7.155-0.752l13.673,30.697l2.465,9.106l0.477-0.05l0.557-9.424l6.28-32.365l9.778-1.027l-11.925,61.827l-7.154,0.752
		L491.841,260.444z"/>
</g>
</svg>
