<?xml version="1.0" encoding="utf-8"?>
<!-- Generator: Adobe Illustrator 16.0.0, SVG Export Plug-In . SVG Version: 6.00 Build 0)  -->
<!DOCTYPE svg PUBLIC "-//W3C//DTD SVG 1.1//EN" "http://www.w3.org/Graphics/SVG/1.1/DTD/svg11.dtd">
<svg version="1.1" id="Layer_1" xmlns="http://www.w3.org/2000/svg" xmlns:xlink="http://www.w3.org/1999/xlink" x="0px" y="0px"
	 width="1200px" height="800px" viewBox="0 0 1200 800" enable-background="new 0 0 1200 800" xml:space="preserve">
<g id="full_shadow">
	<rect x="435" y="235" fill="#00B592" width="478.66" height="330"/>
	<polygon fill="#00A383" points="671.905,323.293 523.282,471.877 616.404,565 913.612,565 	"/>
</g>
<g id="round_square" display="none">
	<path display="inline" fill="#00B592" d="M765,545c0,11.045-8.954,20-20,20H455c-11.046,0-20-8.955-20-20V255
		c0-11.046,8.954-20,20-20h290c11.046,0,20,8.954,20,20V545z"/>
	<path display="inline" fill="#00A383" d="M765,545V416.395l-89.644-89.644L526.75,475.353L616.396,565H745
		C756.046,565,765,556.045,765,545z"/>
</g>
<g id="circle" display="none">
	<circle display="inline" fill="#00B592" cx="600" cy="400" r="165"/>
	<path display="inline" fill="#00A383" d="M526.75,475.353l88.903,88.903c78.631-7.4,141.204-69.973,148.604-148.604l-88.9-88.9
		L526.75,475.353z"/>
</g>
<g id="Clock">
	<g>
		<path fill="#00A383" d="M600,492.409c-50.955,0-92.41-41.454-92.41-92.409c0-50.955,41.455-92.41,92.41-92.41
			c50.955,0,92.409,41.455,92.409,92.41C692.409,450.955,650.955,492.409,600,492.409z"/>
		<g>
			<path fill="#FFFFFF" d="M600,323.181c42.358,0,76.819,34.461,76.819,76.819c0,42.358-34.461,76.819-76.819,76.819
				c-42.358,0-76.819-34.461-76.819-76.819C523.181,357.642,557.642,323.181,600,323.181 M600,292c-59.646,0-108,48.354-108,108
				s48.354,108,108,108s108-48.354,108-108S659.646,292,600,292L600,292z"/>
		</g>
	</g>
	<path fill="#FFFFFF" d="M649.75,389H611v-38.75c0-6.766-5.484-12.25-12.25-12.25s-12.25,5.484-12.25,12.25v51
		c0,6.766,5.484,12.25,12.25,12.25h51c6.766,0,12.25-5.484,12.25-12.25S656.516,389,649.75,389z"/>
</g>
</svg>
