<?xml version="1.0" encoding="utf-8"?>
<!-- Generator: Adobe Illustrator 16.0.0, SVG Export Plug-In . SVG Version: 6.00 Build 0)  -->
<!DOCTYPE svg PUBLIC "-//W3C//DTD SVG 1.1//EN" "http://www.w3.org/Graphics/SVG/1.1/DTD/svg11.dtd">
<svg version="1.1" id="Layer_1" xmlns="http://www.w3.org/2000/svg" xmlns:xlink="http://www.w3.org/1999/xlink" x="0px" y="0px"
	 width="330px" height="330px" viewBox="0 0 330 330" enable-background="new 0 0 330 330" xml:space="preserve">
<path fill="#00B592" d="M330,310c0,11.045-8.954,20-20,20H20c-11.046,0-20-8.955-20-20V20C0,8.954,8.954,0,20,0h290
	c11.046,0,20,8.954,20,20V310z"/>
<path fill="#00A383" d="M330,310V181.395l-89.644-89.644L91.75,240.353L181.396,330H310C321.046,330,330,321.045,330,310z"/>
<g>
	<path fill="#00A383" d="M165,257.409c-50.955,0-92.41-41.454-92.41-92.409c0-50.955,41.455-92.41,92.41-92.41
		c50.955,0,92.409,41.455,92.409,92.41C257.409,215.955,215.955,257.409,165,257.409z"/>
	<g>
		<path fill="#FFFFFF" d="M165,88.181c42.358,0,76.819,34.461,76.819,76.819c0,42.358-34.461,76.819-76.819,76.819
			c-42.358,0-76.819-34.461-76.819-76.819C88.181,122.642,122.642,88.181,165,88.181 M165,57c-59.646,0-108,48.354-108,108
			s48.354,108,108,108s108-48.354,108-108S224.646,57,165,57L165,57z"/>
	</g>
</g>
<path fill="#FFFFFF" d="M214.75,154H176v-38.75c0-6.766-5.484-12.25-12.25-12.25s-12.25,5.484-12.25,12.25v51
	c0,6.766,5.484,12.25,12.25,12.25h51c6.766,0,12.25-5.484,12.25-12.25S221.516,154,214.75,154z"/>
</svg>
