<?xml version="1.0" encoding="utf-8"?>
<!-- Generator: Adobe Illustrator 16.0.0, SVG Export Plug-In . SVG Version: 6.00 Build 0)  -->
<!DOCTYPE svg PUBLIC "-//W3C//DTD SVG 1.1//EN" "http://www.w3.org/Graphics/SVG/1.1/DTD/svg11.dtd">
<svg version="1.1" id="Layer_1" xmlns="http://www.w3.org/2000/svg" xmlns:xlink="http://www.w3.org/1999/xlink" x="0px" y="0px"
	 width="629.532px" height="356.735px" viewBox="0 0 629.532 356.735" enable-background="new 0 0 629.532 356.735"
	 xml:space="preserve">
<linearGradient id="SEASON_field_2_" gradientUnits="userSpaceOnUse" x1="55.1196" y1="283.2749" x2="584.5356" y2="283.2749" gradientTransform="matrix(1 -0.1051 -0.1405 1.0148 40.1822 31.3569)">
	<stop  offset="0" style="stop-color:#EE5630;stop-opacity:0"/>
	<stop  offset="0.6" style="stop-color:#EE5630"/>
	<stop  offset="0.6404" style="stop-color:#DF4E2C"/>
	<stop  offset="0.7337" style="stop-color:#C13F25"/>
	<stop  offset="0.8258" style="stop-color:#AC341F"/>
	<stop  offset="0.9155" style="stop-color:#9F2D1C"/>
	<stop  offset="1" style="stop-color:#9B2B1B"/>
</linearGradient>
<path id="SEASON_field_1_" fill="url(#SEASON_field_2_)" d="M580.24,291.16c-0.843,6.081-6.385,11.523-12.378,12.152l-507.71,53.363
	c-5.993,0.63-10.169-3.791-9.327-9.873l9.354-67.542c0.842-6.082,6.383-11.523,12.376-12.153l507.71-53.363
	c5.993-0.629,10.17,3.791,9.327,9.873L580.24,291.16z"/>
<text transform="matrix(0.9253 -0.0973 0 1 300.7041 317.105)" fill="#FFFFFF" font-family="'PTSans-BoldItalic'" font-size="85.9211">SEASON</text>
<text transform="matrix(1 -0.1051 0 1 71.5664 83.0684)" fill="#FFFFFF" font-family="'PTSans-BoldItalic'" font-size="65.6753">HORIZON</text>
<linearGradient id="AUTUMN_stroke_1_" gradientUnits="userSpaceOnUse" x1="0" y1="153.0942" x2="629.5317" y2="153.0942">
	<stop  offset="0" style="stop-color:#EE5630"/>
	<stop  offset="1" style="stop-color:#9B2B1B"/>
</linearGradient>
<path id="AUTUMN_stroke" fill="url(#AUTUMN_stroke_1_)" d="M575.653,43.092l-6.01,35.073l-13.262-33.982l-39.615,5.099
	l-33.672,3.539l-26.854,47.213l-11.873-43.143l-27.461,2.886l0,0l-53.694,5.644l-0.766,0.081l-31.183,3.277l0,0l-6.255,0.657
	l-17.301,1.818v0l-66.018,6.938l0,0l-53.694,5.644l-0.766,0.081l-54.737,5.752l-10.116,59.284l-6.224-58.501l-41.448,4.356
	L0,268.759l59.931-6.299l12.658-30.328l4.183-0.44l3.05,28.678l53.807-5.655l-0.835-7.852c3.235,2.188,6.835,3.919,10.797,5.144
	c4.338,1.341,9.191,2.021,14.423,2.021c2.333,0,4.796-0.135,7.324-0.4c7.945-0.836,15.198-2.76,21.562-5.72
	c6.999-3.258,13.12-8.058,18.193-14.267c4.603-5.632,8.498-12.603,11.576-20.717c2.824-7.442,5.12-16.389,6.818-26.568l8.433-50.108
	l5.225-0.549L218.541,245.79l54.776-5.756l18.757-110.108l5.727-0.602l-6.584,38.588c-0.583,3.34-1.026,6.59-1.317,9.64
	c-0.306,3.167-0.46,6.31-0.46,9.344c0,6.665,0.808,12.889,2.398,18.486c1.888,6.658,5.062,12.467,9.433,17.262
	c4.651,5.104,10.553,8.788,17.536,10.946c4.337,1.341,9.191,2.021,14.425,2.021c2.331,0,4.794-0.134,7.322-0.399
	c7.942-0.835,15.196-2.759,21.563-5.72c3.64-1.694,7.036-3.814,10.178-6.325l-1.114,6.581l53.88-5.664l24.797-2.606l38.266-4.021
	v0.002l53.916-5.67l5.921-35.148l13.322,34.062l39.444-4.145L629.532,37.43L575.653,43.092z"/>
<text transform="matrix(0.8151 -0.0857 0 1 32.8569 248.1909)" fill="#FFFFFF" font-family="'PTSans-BoldItalic'" font-size="187.0866">AUTUMN</text>
</svg>
