<?xml version="1.0" encoding="utf-8"?>
<!-- Generator: Adobe Illustrator 16.0.0, SVG Export Plug-In . SVG Version: 6.00 Build 0)  -->
<!DOCTYPE svg PUBLIC "-//W3C//DTD SVG 1.1//EN" "http://www.w3.org/Graphics/SVG/1.1/DTD/svg11.dtd">
<svg version="1.1" id="Layer_1" xmlns="http://www.w3.org/2000/svg" xmlns:xlink="http://www.w3.org/1999/xlink" x="0px" y="0px"
	 width="629.532px" height="356.735px" viewBox="0 0 629.532 356.735" enable-background="new 0 0 629.532 356.735"
	 xml:space="preserve">
<linearGradient id="SEASON_field_2_" gradientUnits="userSpaceOnUse" x1="55.1196" y1="283.2749" x2="584.5356" y2="283.2749" gradientTransform="matrix(1 -0.1051 -0.1405 1.0148 40.1822 31.3569)">
	<stop  offset="0" style="stop-color:#EE5630;stop-opacity:0"/>
	<stop  offset="0.6" style="stop-color:#EE5630"/>
	<stop  offset="0.6404" style="stop-color:#DF4E2C"/>
	<stop  offset="0.7337" style="stop-color:#C13F25"/>
	<stop  offset="0.8258" style="stop-color:#AC341F"/>
	<stop  offset="0.9155" style="stop-color:#9F2D1C"/>
	<stop  offset="1" style="stop-color:#9B2B1B"/>
</linearGradient>
<path id="SEASON_field_1_" fill="url(#SEASON_field_2_)" d="M580.24,291.16c-0.843,6.081-6.385,11.523-12.378,12.152l-507.71,53.363
	c-5.993,0.63-10.169-3.791-9.327-9.873l9.354-67.542c0.842-6.082,6.383-11.523,12.376-12.153l507.71-53.363
	c5.993-0.629,10.17,3.791,9.327,9.873L580.24,291.16z"/>
<g>
	<path fill="#FFFFFF" d="M340.613,264.88c-1.008-0.601-2.492-1.164-4.452-1.693c-1.962-0.529-4.134-0.669-6.519-0.419
		c-1.22,0.129-2.413,0.384-3.578,0.766c-1.167,0.382-2.2,0.908-3.1,1.578c-0.902,0.671-1.618,1.495-2.146,2.472
		c-0.531,0.977-0.795,2.1-0.795,3.365c0,1.67,0.477,3.03,1.431,4.083c0.955,1.051,2.159,2.005,3.618,2.858
		c1.457,0.855,3.021,1.71,4.689,2.566c1.67,0.854,3.232,1.894,4.691,3.115c1.457,1.222,2.663,2.741,3.617,4.56
		c0.954,1.82,1.431,4.132,1.431,6.938c0,3.38-0.543,6.344-1.629,8.893c-1.087,2.55-2.625,4.7-4.611,6.456
		c-1.987,1.755-4.373,3.138-7.155,4.146c-2.783,1.009-5.871,1.691-9.261,2.048c-1.856,0.195-3.618,0.265-5.288,0.212
		c-1.669-0.054-3.219-0.178-4.65-0.371c-1.432-0.192-2.691-0.447-3.776-0.763c-1.087-0.315-1.948-0.639-2.584-0.975l5.327-10.526
		c0.528,0.298,1.218,0.606,2.067,0.928c0.847,0.322,1.815,0.604,2.902,0.841c1.085,0.237,2.266,0.407,3.537,0.509
		c1.272,0.101,2.545,0.084,3.816-0.049c1.483-0.156,2.889-0.433,4.214-0.832c1.324-0.398,2.477-0.952,3.458-1.658
		c0.981-0.708,1.75-1.552,2.305-2.531c0.557-0.979,0.836-2.162,0.836-3.545c0-1.555-0.478-2.829-1.432-3.822
		c-0.954-0.993-2.16-1.904-3.617-2.73c-1.458-0.825-3.021-1.681-4.691-2.565c-1.669-0.884-3.233-1.965-4.69-3.244
		c-1.458-1.278-2.663-2.885-3.618-4.818c-0.954-1.932-1.431-4.36-1.431-7.282c0-3.321,0.543-6.213,1.63-8.677
		c1.085-2.462,2.556-4.535,4.412-6.221c1.855-1.684,4.028-3.001,6.519-3.95c2.491-0.949,5.168-1.574,8.03-1.875
		c1.537-0.161,3.073-0.237,4.61-0.227c1.538,0.01,2.994,0.102,4.373,0.271c1.378,0.171,2.65,0.409,3.816,0.716
		c1.165,0.308,2.146,0.676,2.941,1.108L340.613,264.88z"/>
	<path fill="#FFFFFF" d="M354.604,251.295l10.335-1.087l20.987-2.205l-2.066,10.699l-20.987,2.206l-2.783,14.297l19.159-2.014
		l-2.146,10.708l-19.001,1.997l-2.94,15.002l21.385-2.248l-1.986,10.691l-21.387,2.248l-10.334,1.086L354.604,251.295z"/>
	<path fill="#FFFFFF" d="M412.001,292.089l-16.217,1.705l-6.599,14.011l-10.972,1.153l30.926-63.825l7.632-0.802l7.235,59.813
		l-10.416,1.095L412.001,292.089z M400.315,283.866l11.29-1.187l-1.272-13.27l0.079-9.46l-0.396,0.042l-3.18,9.871L400.315,283.866z
		"/>
	<path fill="#FFFFFF" d="M467.413,251.552c-1.009-0.6-2.492-1.163-4.452-1.693c-1.962-0.528-4.135-0.668-6.519-0.418
		c-1.22,0.128-2.413,0.384-3.578,0.766c-1.167,0.382-2.2,0.908-3.101,1.578c-0.902,0.671-1.618,1.495-2.146,2.472
		c-0.531,0.977-0.795,2.099-0.795,3.364c0,1.67,0.477,3.031,1.431,4.084c0.954,1.051,2.159,2.005,3.617,2.858
		c1.457,0.854,3.021,1.71,4.69,2.565s3.232,1.895,4.69,3.115c1.457,1.223,2.663,2.742,3.617,4.561
		c0.955,1.819,1.432,4.132,1.432,6.938c0,3.38-0.544,6.344-1.63,8.893c-1.087,2.55-2.624,4.7-4.611,6.456
		c-1.987,1.755-4.372,3.137-7.154,4.146c-2.783,1.008-5.871,1.691-9.262,2.048c-1.856,0.195-3.618,0.265-5.287,0.212
		c-1.67-0.054-3.22-0.178-4.65-0.371c-1.432-0.193-2.691-0.447-3.776-0.763c-1.088-0.315-1.948-0.64-2.584-0.975l5.327-10.527
		c0.528,0.299,1.218,0.606,2.066,0.929c0.847,0.322,1.815,0.604,2.902,0.841c1.085,0.237,2.266,0.407,3.537,0.509
		c1.272,0.101,2.544,0.084,3.815-0.05c1.483-0.155,2.889-0.433,4.214-0.831c1.324-0.398,2.477-0.952,3.458-1.658
		c0.98-0.708,1.749-1.553,2.306-2.532c0.557-0.979,0.835-2.161,0.835-3.544c0-1.555-0.477-2.829-1.432-3.822
		c-0.953-0.994-2.16-1.904-3.616-2.73c-1.459-0.825-3.021-1.681-4.691-2.565c-1.669-0.885-3.233-1.965-4.689-3.244
		c-1.459-1.278-2.663-2.885-3.618-4.818c-0.954-1.932-1.431-4.36-1.431-7.282c0-3.321,0.543-6.214,1.63-8.677
		c1.086-2.462,2.557-4.536,4.412-6.221c1.855-1.684,4.027-3.001,6.519-3.95s5.168-1.574,8.03-1.875
		c1.536-0.162,3.073-0.237,4.61-0.227c1.537,0.01,2.994,0.101,4.372,0.271c1.378,0.171,2.65,0.409,3.817,0.716
		c1.164,0.308,2.146,0.676,2.94,1.108L467.413,251.552z"/>
	<path fill="#FFFFFF" d="M472.659,276.52c0-5.327,0.675-10.425,2.027-15.292c1.352-4.868,3.271-9.194,5.764-12.979
		c2.49-3.785,5.497-6.879,9.022-9.283c3.524-2.402,7.46-3.834,11.807-4.291c2.861-0.301,5.445-0.113,7.751,0.561
		c2.306,0.675,4.266,1.886,5.883,3.635c1.616,1.75,2.874,4.037,3.775,6.863c0.901,2.827,1.353,6.245,1.353,10.254
		c0,5.386-0.676,10.526-2.027,15.421c-1.352,4.898-3.26,9.266-5.724,13.104c-2.466,3.84-5.406,6.97-8.825,9.391
		c-3.418,2.422-7.194,3.85-11.329,4.284c-6.253,0.658-11.05-0.828-14.39-4.459C474.407,290.099,472.71,284.363,472.659,276.52z
		 M483.55,275.031c0,4.125,0.728,7.343,2.186,9.652c1.457,2.31,3.856,3.289,7.195,2.938c2.437-0.256,4.65-1.276,6.638-3.062
		c1.987-1.783,3.696-4.082,5.128-6.896c1.431-2.814,2.53-5.979,3.3-9.498c0.767-3.517,1.152-7.137,1.152-10.861
		c0-4.523-0.822-7.731-2.465-9.621c-1.644-1.89-3.896-2.684-6.758-2.383c-2.384,0.25-4.57,1.226-6.559,2.924
		c-1.987,1.698-3.71,3.898-5.167,6.6c-1.458,2.703-2.598,5.801-3.418,9.296C483.959,267.614,483.55,271.251,483.55,275.031z"/>
	<path fill="#FFFFFF" d="M540.472,260.457l-2.625-9.348l-0.396,0.042l-0.716,9.698l-6.122,32.091l-9.778,1.028l11.926-61.828
		l7.155-0.752l13.673,30.697l2.465,9.106l0.477-0.05l0.557-9.424l6.28-32.365l9.778-1.027l-11.925,61.827l-7.154,0.752
		L540.472,260.457z"/>
</g>
<g>
	<path fill="#FFFFFF" d="M101.449,60.685L85.49,62.362l-4.072,19.671L72.88,82.93l9.72-46.994l8.538-0.897l-3.941,19.132
		l15.959-1.678l3.941-19.132l8.538-0.897l-9.72,46.995l-8.538,0.897L101.449,60.685z"/>
	<path fill="#FFFFFF" d="M116.356,61.154c0-4.071,0.559-7.973,1.675-11.703c1.117-3.729,2.703-7.047,4.761-9.958
		c2.058-2.908,4.542-5.292,7.454-7.153c2.911-1.86,6.163-2.979,9.753-3.357c2.365-0.249,4.499-0.122,6.403,0.377
		c1.904,0.501,3.524,1.415,4.86,2.74c1.335,1.328,2.375,3.068,3.12,5.222c0.745,2.155,1.117,4.765,1.117,7.83
		c0,4.115-0.558,8.049-1.675,11.8c-1.116,3.752-2.692,7.103-4.729,10.053c-2.036,2.951-4.466,5.362-7.29,7.235
		c-2.824,1.874-5.943,2.99-9.359,3.349c-5.167,0.543-9.129-0.562-11.887-3.315C117.802,71.521,116.4,67.148,116.356,61.154z
		 M125.354,59.945c0,3.152,0.602,5.608,1.806,7.363c1.204,1.756,3.185,2.49,5.943,2.2c2.013-0.211,3.842-1.005,5.484-2.383
		c1.642-1.376,3.054-3.145,4.236-5.305c1.182-2.161,2.09-4.587,2.726-7.281c0.634-2.694,0.952-5.463,0.952-8.31
		c0-3.458-0.679-5.905-2.036-7.339c-1.358-1.433-3.218-2.026-5.583-1.777c-1.97,0.207-3.777,0.966-5.418,2.277
		c-1.642,1.312-3.065,3.004-4.269,5.079c-1.205,2.075-2.146,4.451-2.824,7.127C125.693,54.273,125.354,57.056,125.354,59.945z"/>
	<path fill="#FFFFFF" d="M165.81,27.65c2.102-0.616,4.225-1.123,6.37-1.524c2.145-0.399,4.072-0.691,5.78-0.871
		c2.013-0.211,3.918-0.17,5.713,0.123c1.795,0.293,3.35,0.862,4.663,1.71c1.313,0.847,2.353,2.008,3.12,3.481
		c0.765,1.475,1.149,3.261,1.149,5.363c0,2.408-0.361,4.537-1.083,6.386s-1.675,3.438-2.857,4.766
		c-1.183,1.329-2.528,2.411-4.039,3.249c-1.51,0.838-3.054,1.448-4.63,1.833l2.562,1.767l6.371,16.8l-9.457,0.994l-6.305-17.333
		l-4.532-0.377l-3.94,19.263l-8.538,0.897L165.81,27.65z M169.947,47.771l3.481-0.366c1.27-0.133,2.518-0.385,3.744-0.754
		c1.225-0.369,2.309-0.921,3.251-1.655c0.94-0.733,1.708-1.658,2.298-2.771c0.591-1.113,0.887-2.479,0.887-4.099
		c0-1.488-0.504-2.716-1.511-3.683c-1.007-0.966-2.626-1.333-4.86-1.099c-0.876,0.092-1.697,0.211-2.462,0.357
		c-0.767,0.146-1.412,0.291-1.938,0.433L169.947,47.771z"/>
	<path fill="#FFFFFF" d="M205.215,23.048l8.472-0.89l-9.72,46.994l-8.472,0.891L205.215,23.048z"/>
	<path fill="#FFFFFF" d="M212.44,60.249l23.643-29.805l3.809-3.027l-21.082,2.216l1.642-8.185l30.277-3.182l-1.642,8.185
		l-23.774,30.016l-3.678,2.816l21.082-2.216l-1.708,8.192l-30.276,3.182L212.44,60.249z"/>
	<path fill="#FFFFFF" d="M247.772,47.341c0-4.071,0.559-7.973,1.675-11.703c1.117-3.729,2.703-7.048,4.761-9.958
		c2.058-2.909,4.542-5.292,7.454-7.153c2.911-1.86,6.163-2.98,9.753-3.357c2.365-0.249,4.499-0.121,6.403,0.378
		c1.904,0.501,3.524,1.415,4.86,2.74c1.336,1.327,2.375,3.068,3.119,5.222c0.744,2.155,1.117,4.766,1.117,7.83
		c0,4.115-0.557,8.049-1.674,11.8c-1.117,3.752-2.692,7.104-4.729,10.053c-2.036,2.952-4.466,5.362-7.29,7.235
		c-2.824,1.874-5.943,2.99-9.359,3.349c-5.167,0.543-9.129-0.562-11.887-3.315C249.218,57.709,247.816,53.335,247.772,47.341z
		 M256.77,46.133c0,3.152,0.602,5.608,1.806,7.363c1.204,1.756,3.185,2.489,5.943,2.2c2.013-0.212,3.842-1.005,5.484-2.383
		c1.642-1.375,3.054-3.144,4.236-5.305c1.182-2.16,2.09-4.587,2.726-7.28c0.634-2.695,0.952-5.463,0.952-8.31
		c0-3.458-0.679-5.905-2.036-7.339c-1.358-1.434-3.218-2.026-5.583-1.777c-1.97,0.207-3.777,0.966-5.418,2.277
		c-1.642,1.311-3.065,3.004-4.269,5.079c-1.205,2.075-2.146,4.451-2.824,7.127C257.109,40.46,256.77,43.243,256.77,46.133z"/>
	<path fill="#FFFFFF" d="M303.793,34.623l-2.167-7.128l-0.329,0.035l-0.59,7.417l-5.057,24.569l-8.079,0.849l9.852-47.336
		l5.911-0.621l11.296,23.375l2.036,6.944l0.394-0.042l0.459-7.207l5.188-24.78l8.079-0.849l-9.853,47.336l-5.911,0.622
		L303.793,34.623z"/>
</g>
<linearGradient id="AUTUMN_stroke_1_" gradientUnits="userSpaceOnUse" x1="0" y1="153.0942" x2="629.5317" y2="153.0942">
	<stop  offset="0" style="stop-color:#EE5630"/>
	<stop  offset="1" style="stop-color:#9B2B1B"/>
</linearGradient>
<path id="AUTUMN_stroke" fill="url(#AUTUMN_stroke_1_)" d="M575.653,43.092l-6.01,35.073l-13.262-33.982l-39.615,5.099
	l-33.672,3.539l-26.854,47.213l-11.873-43.143l-27.461,2.886l0,0l-53.694,5.644l-0.766,0.081l-31.183,3.277l0,0l-6.255,0.657
	l-17.301,1.818v0l-66.018,6.938l0,0l-53.694,5.644l-0.766,0.081l-54.737,5.752l-10.116,59.284l-6.224-58.501l-41.448,4.356
	L0,268.759l59.931-6.299l12.658-30.328l4.183-0.44l3.05,28.678l53.807-5.655l-0.835-7.852c3.235,2.188,6.835,3.919,10.797,5.144
	c4.338,1.341,9.191,2.021,14.423,2.021c2.333,0,4.796-0.135,7.324-0.4c7.945-0.836,15.198-2.76,21.562-5.72
	c6.999-3.258,13.12-8.058,18.193-14.267c4.603-5.632,8.498-12.603,11.576-20.717c2.824-7.442,5.12-16.389,6.818-26.568l8.433-50.108
	l5.225-0.549L218.541,245.79l54.776-5.756l18.757-110.108l5.727-0.602l-6.584,38.588c-0.583,3.34-1.026,6.59-1.317,9.64
	c-0.306,3.167-0.46,6.31-0.46,9.344c0,6.665,0.808,12.889,2.398,18.486c1.888,6.658,5.062,12.467,9.433,17.262
	c4.651,5.104,10.553,8.788,17.536,10.946c4.337,1.341,9.191,2.021,14.425,2.021c2.331,0,4.794-0.134,7.322-0.399
	c7.942-0.835,15.196-2.759,21.563-5.72c3.64-1.694,7.036-3.814,10.178-6.325l-1.114,6.581l53.88-5.664l24.797-2.606l38.266-4.021
	v0.002l53.916-5.67l5.921-35.148l13.322,34.062l39.444-4.145L629.532,37.43L575.653,43.092z"/>
<g>
	<path fill="#FFFFFF" d="M91.873,212.99l-31.109,3.27l-12.657,30.329L27.062,248.8l59.32-138.132l14.64-1.539l13.876,130.438
		l-19.977,2.1L91.873,212.99z M69.456,194.766l21.654-2.276l-2.44-28.929l0.153-20.595l-0.763,0.08l-6.1,21.408L69.456,194.766z"/>
	<path fill="#FFFFFF" d="M202.583,99.391l18.604-1.956L206.7,183.521c-1.525,9.141-3.508,16.927-5.947,23.357
		c-2.44,6.43-5.39,11.762-8.845,15.988c-3.458,4.232-7.525,7.434-12.2,9.609c-4.677,2.175-10.064,3.583-16.164,4.224
		c-5.897,0.62-10.88,0.302-14.945-0.954c-4.067-1.257-7.396-3.307-9.988-6.153c-2.593-2.844-4.475-6.327-5.643-10.445
		c-1.17-4.116-1.754-8.731-1.754-13.847c0-2.494,0.126-5.065,0.381-7.711c0.252-2.646,0.634-5.428,1.144-8.352l14.334-84.013
		l19.672-2.068l-14.029,83.793c-0.815,4.826-1.221,8.734-1.221,11.728c0,5.986,1.271,10.095,3.812,12.321
		c2.541,2.229,6.253,3.084,11.133,2.572c6.1-0.642,10.827-3.32,14.182-8.04c3.354-4.717,5.895-12.032,7.625-21.942L202.583,99.391z"
		/>
	<path fill="#FFFFFF" d="M307.04,111.237l-29.583,3.109L258.7,224.454l-19.672,2.067l18.604-110.091l-29.584,3.109l3.965-23.242
		l78.84-8.287L307.04,111.237z"/>
	<path fill="#FFFFFF" d="M377.798,80.975l18.604-1.956l-14.487,86.086c-1.524,9.141-3.507,16.926-5.947,23.357
		c-2.44,6.43-5.39,11.762-8.845,15.988c-3.457,4.232-7.524,7.433-12.2,9.609c-4.677,2.175-10.064,3.582-16.164,4.224
		c-5.897,0.62-10.88,0.302-14.944-0.954c-4.067-1.258-7.396-3.307-9.989-6.154c-2.592-2.844-4.475-6.326-5.642-10.444
		c-1.17-4.116-1.754-8.731-1.754-13.847c0-2.494,0.126-5.065,0.382-7.711c0.252-2.646,0.633-5.428,1.143-8.352l14.335-84.013
		l19.672-2.067l-14.03,83.793c-0.815,4.827-1.22,8.734-1.22,11.727c0,5.986,1.27,10.096,3.813,12.322
		c2.54,2.229,6.252,3.084,11.132,2.571c6.1-0.641,10.827-3.319,14.182-8.039c3.355-4.718,5.896-12.032,7.625-21.942L377.798,80.975z
		"/>
	<path fill="#FFFFFF" d="M482.104,133.06l6.71-26.523l-0.915,0.096l-10.064,22.198l-30.043,51.614l-6.251,0.657l-14.335-47.51
		L424.46,113.3l-0.763,0.08l-1.524,25.792l-11.743,69.333l-18.757,1.972l22.57-133.333l17.537-1.843l16.011,58.185l1.983,14.758
		l0.763-0.08l7.014-16.078l35.989-63.277l19.062-2.003l-22.569,133.333l-19.672,2.068L482.104,133.06z"/>
	<path fill="#FFFFFF" d="M546.304,125.751l-5.032-20.425l-0.763,0.08l-1.372,21.098l-11.743,69.708l-18.757,1.971l22.875-134.3
		l13.725-1.443l26.229,67.214l4.728,19.896l0.915-0.096l1.067-20.505l12.047-70.301l18.757-1.972l-22.874,134.3l-13.726,1.443
		L546.304,125.751z"/>
</g>
</svg>
