<?xml version="1.0" encoding="utf-8"?>
<!-- Generator: Adobe Illustrator 16.0.0, SVG Export Plug-In . SVG Version: 6.00 Build 0)  -->
<!DOCTYPE svg PUBLIC "-//W3C//DTD SVG 1.1//EN" "http://www.w3.org/Graphics/SVG/1.1/DTD/svg11.dtd">
<svg version="1.1" id="Layer_1" xmlns="http://www.w3.org/2000/svg" xmlns:xlink="http://www.w3.org/1999/xlink" x="0px" y="0px"
	 width="636.997px" height="356.735px" viewBox="0 0 636.997 356.735" enable-background="new 0 0 636.997 356.735"
	 xml:space="preserve">
<linearGradient id="SEASON_field_2_" gradientUnits="userSpaceOnUse" x1="54.4629" y1="283.2749" x2="583.8789" y2="283.2749" gradientTransform="matrix(1 -0.1051 -0.1405 1.0148 40.1822 31.2878)">
	<stop  offset="0" style="stop-color:#B7CF22;stop-opacity:0"/>
	<stop  offset="0.4" style="stop-color:#B7CF22"/>
	<stop  offset="1" style="stop-color:#509844"/>
</linearGradient>
<path id="SEASON_field_1_" fill="url(#SEASON_field_2_)" d="M579.583,291.16c-0.843,6.081-6.385,11.523-12.378,12.152
	l-507.71,53.363c-5.993,0.63-10.169-3.791-9.327-9.873l9.354-67.542c0.842-6.082,6.383-11.523,12.376-12.153l507.71-53.363
	c5.993-0.629,10.17,3.791,9.327,9.873L579.583,291.16z"/>
<g>
	<path fill="#FFFFFF" d="M339.956,264.88c-1.008-0.601-2.492-1.164-4.452-1.693c-1.962-0.529-4.134-0.669-6.519-0.419
		c-1.22,0.129-2.413,0.384-3.578,0.766c-1.167,0.382-2.2,0.908-3.1,1.578c-0.902,0.671-1.618,1.495-2.146,2.472
		c-0.531,0.977-0.795,2.1-0.795,3.365c0,1.67,0.477,3.03,1.431,4.083c0.955,1.051,2.159,2.005,3.618,2.858
		c1.457,0.855,3.021,1.71,4.689,2.566c1.67,0.854,3.232,1.894,4.691,3.115c1.457,1.222,2.663,2.741,3.617,4.56
		c0.954,1.82,1.431,4.132,1.431,6.938c0,3.38-0.543,6.344-1.629,8.893c-1.087,2.55-2.625,4.7-4.611,6.456
		c-1.987,1.755-4.373,3.138-7.155,4.146c-2.783,1.009-5.871,1.691-9.261,2.048c-1.856,0.195-3.618,0.265-5.288,0.212
		c-1.669-0.054-3.219-0.178-4.65-0.371c-1.432-0.192-2.691-0.447-3.776-0.763c-1.087-0.315-1.948-0.639-2.584-0.975l5.327-10.526
		c0.528,0.298,1.218,0.606,2.067,0.928c0.847,0.322,1.815,0.604,2.902,0.841c1.085,0.237,2.266,0.407,3.537,0.509
		c1.272,0.101,2.545,0.084,3.816-0.049c1.483-0.156,2.889-0.433,4.214-0.832c1.324-0.398,2.477-0.952,3.458-1.658
		c0.981-0.708,1.75-1.552,2.305-2.531c0.557-0.979,0.836-2.162,0.836-3.545c0-1.555-0.478-2.829-1.432-3.822
		c-0.954-0.993-2.16-1.904-3.617-2.73c-1.458-0.825-3.021-1.681-4.691-2.565c-1.669-0.884-3.233-1.965-4.69-3.244
		c-1.458-1.278-2.663-2.885-3.618-4.818c-0.954-1.932-1.431-4.36-1.431-7.282c0-3.321,0.543-6.213,1.63-8.677
		c1.085-2.462,2.556-4.535,4.412-6.221c1.855-1.684,4.028-3.001,6.519-3.95c2.491-0.949,5.168-1.574,8.03-1.875
		c1.537-0.161,3.073-0.237,4.61-0.227c1.538,0.01,2.994,0.102,4.373,0.271c1.378,0.171,2.65,0.409,3.816,0.716
		c1.165,0.308,2.146,0.676,2.941,1.108L339.956,264.88z"/>
	<path fill="#FFFFFF" d="M353.947,251.295l10.335-1.087l20.987-2.205l-2.066,10.699l-20.987,2.206l-2.783,14.297l19.159-2.014
		l-2.146,10.708l-19.001,1.997l-2.94,15.002l21.385-2.248l-1.986,10.691l-21.387,2.248l-10.334,1.086L353.947,251.295z"/>
	<path fill="#FFFFFF" d="M411.345,292.089l-16.217,1.705l-6.599,14.011l-10.972,1.153l30.926-63.825l7.632-0.802l7.235,59.813
		l-10.416,1.095L411.345,292.089z M399.658,283.866l11.29-1.187l-1.272-13.27l0.079-9.46l-0.396,0.042l-3.18,9.871L399.658,283.866z
		"/>
	<path fill="#FFFFFF" d="M466.756,251.552c-1.009-0.6-2.492-1.163-4.452-1.693c-1.962-0.528-4.135-0.668-6.519-0.418
		c-1.22,0.128-2.413,0.384-3.578,0.766c-1.167,0.382-2.2,0.908-3.101,1.578c-0.902,0.671-1.618,1.495-2.146,2.472
		c-0.531,0.977-0.795,2.099-0.795,3.364c0,1.67,0.477,3.031,1.431,4.084c0.954,1.051,2.159,2.005,3.617,2.858
		c1.457,0.854,3.021,1.71,4.69,2.565s3.232,1.895,4.69,3.115c1.457,1.223,2.663,2.742,3.617,4.561
		c0.955,1.819,1.432,4.132,1.432,6.938c0,3.38-0.544,6.344-1.63,8.893c-1.087,2.55-2.624,4.7-4.611,6.456
		c-1.987,1.755-4.372,3.137-7.154,4.146c-2.783,1.008-5.871,1.691-9.262,2.048c-1.856,0.195-3.618,0.265-5.287,0.212
		c-1.67-0.054-3.22-0.178-4.65-0.371c-1.432-0.193-2.691-0.447-3.776-0.763c-1.088-0.315-1.948-0.64-2.584-0.975l5.327-10.527
		c0.528,0.299,1.218,0.606,2.066,0.929c0.847,0.322,1.815,0.604,2.902,0.841c1.085,0.237,2.266,0.407,3.537,0.509
		c1.272,0.101,2.544,0.084,3.815-0.05c1.483-0.155,2.889-0.433,4.214-0.831c1.324-0.398,2.477-0.952,3.458-1.658
		c0.98-0.708,1.749-1.553,2.306-2.532c0.557-0.979,0.835-2.161,0.835-3.544c0-1.555-0.477-2.829-1.432-3.822
		c-0.953-0.994-2.16-1.904-3.616-2.73c-1.459-0.825-3.021-1.681-4.691-2.565c-1.669-0.885-3.233-1.965-4.689-3.244
		c-1.459-1.278-2.663-2.885-3.618-4.818c-0.954-1.932-1.431-4.36-1.431-7.282c0-3.321,0.543-6.214,1.63-8.677
		c1.086-2.462,2.557-4.536,4.412-6.221c1.855-1.684,4.027-3.001,6.519-3.95s5.168-1.574,8.03-1.875
		c1.536-0.162,3.073-0.237,4.61-0.227c1.537,0.01,2.994,0.101,4.372,0.271c1.378,0.171,2.65,0.409,3.817,0.716
		c1.164,0.308,2.146,0.676,2.94,1.108L466.756,251.552z"/>
	<path fill="#FFFFFF" d="M472.002,276.52c0-5.327,0.675-10.425,2.027-15.292c1.352-4.868,3.271-9.194,5.764-12.979
		c2.49-3.785,5.497-6.879,9.022-9.283c3.524-2.402,7.46-3.834,11.807-4.291c2.861-0.301,5.445-0.113,7.751,0.561
		c2.306,0.675,4.266,1.886,5.883,3.635c1.616,1.75,2.874,4.037,3.775,6.863c0.901,2.827,1.353,6.245,1.353,10.254
		c0,5.386-0.676,10.526-2.027,15.421c-1.352,4.898-3.26,9.266-5.724,13.104c-2.466,3.84-5.406,6.97-8.825,9.391
		c-3.418,2.422-7.194,3.85-11.329,4.284c-6.253,0.658-11.05-0.828-14.39-4.459C473.75,290.099,472.054,284.363,472.002,276.52z
		 M482.894,275.031c0,4.125,0.728,7.343,2.186,9.652c1.457,2.31,3.856,3.289,7.195,2.938c2.437-0.256,4.65-1.276,6.638-3.062
		c1.987-1.783,3.696-4.082,5.128-6.896c1.431-2.814,2.53-5.979,3.3-9.498c0.767-3.517,1.152-7.137,1.152-10.861
		c0-4.523-0.822-7.731-2.465-9.621c-1.644-1.89-3.896-2.684-6.758-2.383c-2.384,0.25-4.57,1.226-6.559,2.924
		c-1.987,1.698-3.71,3.898-5.167,6.6c-1.458,2.703-2.598,5.801-3.418,9.296C483.303,267.614,482.894,271.251,482.894,275.031z"/>
	<path fill="#FFFFFF" d="M539.815,260.457l-2.625-9.348l-0.396,0.042l-0.716,9.698l-6.122,32.091l-9.778,1.028l11.926-61.828
		l7.155-0.752l13.673,30.697l2.465,9.106l0.477-0.05l0.557-9.424l6.28-32.365l9.778-1.027l-11.925,61.827l-7.154,0.752
		L539.815,260.457z"/>
</g>
<g>
	<path fill="#FFFFFF" d="M100.792,60.685l-15.959,1.677l-4.072,19.671l-8.538,0.897l9.72-46.994l8.538-0.897l-3.941,19.132
		l15.959-1.678l3.941-19.132l8.538-0.897l-9.72,46.995l-8.538,0.897L100.792,60.685z"/>
	<path fill="#FFFFFF" d="M115.7,61.154c0-4.071,0.559-7.973,1.675-11.703c1.117-3.729,2.703-7.047,4.761-9.958
		c2.058-2.908,4.542-5.292,7.454-7.153c2.911-1.86,6.163-2.979,9.753-3.357c2.365-0.249,4.499-0.122,6.403,0.377
		c1.904,0.501,3.524,1.415,4.86,2.74c1.335,1.328,2.375,3.068,3.12,5.222c0.745,2.155,1.117,4.765,1.117,7.83
		c0,4.115-0.558,8.049-1.675,11.8c-1.116,3.752-2.692,7.103-4.729,10.053c-2.036,2.951-4.466,5.362-7.29,7.235
		c-2.824,1.874-5.943,2.99-9.359,3.349c-5.167,0.543-9.129-0.562-11.887-3.315C117.145,71.521,115.743,67.148,115.7,61.154z
		 M124.697,59.945c0,3.152,0.602,5.608,1.806,7.363c1.204,1.756,3.185,2.49,5.943,2.2c2.013-0.211,3.842-1.005,5.484-2.383
		c1.642-1.376,3.054-3.145,4.236-5.305c1.182-2.161,2.09-4.587,2.726-7.281c0.634-2.694,0.952-5.463,0.952-8.31
		c0-3.458-0.679-5.905-2.036-7.339c-1.358-1.433-3.218-2.026-5.583-1.777c-1.97,0.207-3.777,0.966-5.418,2.277
		c-1.642,1.312-3.065,3.004-4.269,5.079c-1.205,2.075-2.146,4.451-2.824,7.127C125.036,54.273,124.697,57.056,124.697,59.945z"/>
	<path fill="#FFFFFF" d="M165.153,27.65c2.102-0.616,4.225-1.123,6.37-1.524c2.145-0.399,4.072-0.691,5.78-0.871
		c2.013-0.211,3.918-0.17,5.713,0.123c1.795,0.293,3.35,0.862,4.663,1.71c1.313,0.847,2.353,2.008,3.12,3.481
		c0.765,1.475,1.149,3.261,1.149,5.363c0,2.408-0.361,4.537-1.083,6.386s-1.675,3.438-2.857,4.766
		c-1.183,1.329-2.528,2.411-4.039,3.249c-1.51,0.838-3.054,1.448-4.63,1.833l2.562,1.767l6.371,16.8l-9.457,0.994l-6.305-17.333
		l-4.532-0.377l-3.94,19.263l-8.538,0.897L165.153,27.65z M169.291,47.771l3.481-0.366c1.27-0.133,2.518-0.385,3.744-0.754
		c1.225-0.369,2.309-0.921,3.251-1.655c0.94-0.733,1.708-1.658,2.298-2.771c0.591-1.113,0.887-2.479,0.887-4.099
		c0-1.488-0.504-2.716-1.511-3.683c-1.007-0.966-2.626-1.333-4.86-1.099c-0.876,0.092-1.697,0.211-2.462,0.357
		c-0.767,0.146-1.412,0.291-1.938,0.433L169.291,47.771z"/>
	<path fill="#FFFFFF" d="M204.559,23.048l8.472-0.89l-9.72,46.994l-8.472,0.891L204.559,23.048z"/>
	<path fill="#FFFFFF" d="M211.783,60.249l23.643-29.805l3.809-3.027l-21.082,2.216l1.642-8.185l30.277-3.182l-1.642,8.185
		l-23.774,30.016l-3.678,2.816l21.082-2.216l-1.708,8.192l-30.276,3.182L211.783,60.249z"/>
	<path fill="#FFFFFF" d="M247.116,47.341c0-4.071,0.559-7.973,1.675-11.703c1.117-3.729,2.703-7.048,4.761-9.958
		c2.058-2.909,4.542-5.292,7.454-7.153c2.911-1.86,6.163-2.98,9.753-3.357c2.365-0.249,4.499-0.121,6.403,0.378
		c1.904,0.501,3.524,1.415,4.86,2.74c1.336,1.327,2.375,3.068,3.119,5.222c0.744,2.155,1.117,4.766,1.117,7.83
		c0,4.115-0.557,8.049-1.674,11.8c-1.117,3.752-2.692,7.104-4.729,10.053c-2.036,2.952-4.466,5.362-7.29,7.235
		c-2.824,1.874-5.943,2.99-9.359,3.349c-5.167,0.543-9.129-0.562-11.887-3.315C248.561,57.709,247.159,53.335,247.116,47.341z
		 M256.113,46.133c0,3.152,0.602,5.608,1.806,7.363c1.204,1.756,3.185,2.489,5.943,2.2c2.013-0.212,3.842-1.005,5.484-2.383
		c1.642-1.375,3.054-3.144,4.236-5.305c1.182-2.16,2.09-4.587,2.726-7.28c0.634-2.695,0.952-5.463,0.952-8.31
		c0-3.458-0.679-5.905-2.036-7.339c-1.358-1.434-3.218-2.026-5.583-1.777c-1.97,0.207-3.777,0.966-5.418,2.277
		c-1.642,1.311-3.065,3.004-4.269,5.079c-1.205,2.075-2.146,4.451-2.824,7.127C256.452,40.46,256.113,43.243,256.113,46.133z"/>
	<path fill="#FFFFFF" d="M303.137,34.623l-2.167-7.128l-0.329,0.035l-0.59,7.417l-5.057,24.569l-8.079,0.849l9.852-47.336
		l5.911-0.621l11.296,23.375l2.036,6.944l0.394-0.042l0.459-7.207l5.188-24.78l8.079-0.849l-9.853,47.336l-5.911,0.622
		L303.137,34.623z"/>
</g>
<linearGradient id="SPRING_stroke_1_" gradientUnits="userSpaceOnUse" x1="0" y1="150.0679" x2="636.9971" y2="150.0679">
	<stop  offset="0" style="stop-color:#B7CF22"/>
	<stop  offset="1" style="stop-color:#509844"/>
</linearGradient>
<path id="SPRING_stroke" fill="url(#SPRING_stroke_1_)" d="M636.997,47.045l-16.21-5.326c-3.94-1.294-9.11-2.279-15.818-3.009
	c-6.635-0.717-14.114-0.646-22.296,0.213c-11.646,1.224-22.881,4.329-33.398,9.229c-9.369,4.371-17.811,10.304-25.165,17.658
	l3.854-18.518l-55.559,5.839l-10.343,49.398l-22.647-46.866l-88.646,10.253l-8.361,40.425c-0.828-4.288-2.165-8.268-4.042-11.88
	c-3.439-6.613-8.24-11.937-14.266-15.823c-5.529-3.567-11.996-5.976-19.227-7.158c-6.457-1.053-13.33-1.21-20.415-0.465
	c-5.235,0.55-11.187,1.444-17.698,2.658c-6.601,1.234-13.215,2.815-19.66,4.701l-8.985,2.629l-3.846,18.535
	c-2.994-3.94-6.614-7.283-10.849-9.959c-5.832-3.687-12.596-6.16-20.101-7.352c-6.749-1.072-14.07-1.206-21.756-0.398
	c-6.438,0.676-12.929,1.665-19.291,2.937c-6.335,1.265-12.428,2.757-18.107,4.434l-8.953,2.644l-0.81,3.901
	c-2.79-1.311-5.913-2.381-9.558-3.242c-3.353-0.79-7.02-1.401-10.919-1.818c-3.735-0.395-7.688-0.595-11.75-0.595l-0.206,0
	c-4.142,0.007-8.332,0.23-12.452,0.664c-7.949,0.835-15.537,2.541-22.553,5.069c-7.592,2.736-14.368,6.604-20.14,11.5
	c-6.047,5.128-10.886,11.464-14.381,18.827c-3.546,7.464-5.344,16.082-5.344,25.614c0,8.93,1.755,16.733,5.214,23.188
	c3.234,6.039,7.438,11.161,12.483,15.212c4.333,3.487,9.058,6.473,14.034,8.871c3.79,1.83,7.379,3.618,10.653,5.307
	c0.751,0.389,1.453,0.786,2.097,1.188c-0.804,0.424-1.765,0.797-2.868,1.112c-2.237,0.64-4.679,1.101-7.264,1.372
	c-2.102,0.222-4.224,0.264-6.322,0.126c-2.327-0.153-4.471-0.419-6.376-0.79c-1.829-0.355-3.421-0.764-4.745-1.219
	c-1.815-0.623-2.615-1.009-2.817-1.112l-13.529-6.926L0,248.895l14.825,7.089c2.422,1.158,5.326,2.171,8.862,3.092
	c3.275,0.855,6.879,1.508,11.016,1.992c3.827,0.448,8.003,0.726,12.426,0.823c0.723,0.016,1.453,0.023,2.188,0.023
	c3.909,0,8.019-0.224,12.216-0.665c9.11-0.957,17.598-2.771,25.224-5.388c5.866-2.013,11.225-4.613,16.028-7.74l-1.31,6.312
	l56.937-5.985l9.199-45.492l2.802-0.296c8.489-0.891,16.939-2.76,25.105-5.551c7.569-2.581,14.529-6.236,20.758-10.871
	l-11.906,57.379l56.91-5.98l6.959-34.02l11.663,32.062l36.546-3.841v0.001l18.057-1.897l4.577-0.481l0,0l26.544-2.79l0,0
	l55.599-5.845l10.194-49.529l22.767,47.001l39.042-4.103l7.756-37.27c3.065,6.843,7.125,12.723,12.125,17.489
	c6.003,5.729,13.17,9.885,21.3,12.349c5.567,1.688,11.514,2.544,17.674,2.544c2.436,0,4.948-0.135,7.469-0.399
	c8.618-0.905,16.836-3.011,24.433-6.26c7.674-3.286,15.03-8.012,21.863-14.047l3.894-3.439l17.725-85.65l-12.821-0.686
	L636.997,47.045z"/>
<g>
	<path fill="#FFFFFF" d="M115.828,132.652c-2.371-1.289-5.864-2.488-10.477-3.605c-4.616-1.117-9.729-1.38-15.341-0.79
		c-2.871,0.302-5.677,0.88-8.419,1.732c-2.745,0.853-5.177,2.017-7.296,3.495c-2.122,1.477-3.806,3.285-5.051,5.421
		c-1.249,2.136-1.871,4.584-1.871,7.34c0,3.637,1.123,6.591,3.368,8.864c2.245,2.272,5.081,4.327,8.513,6.159
		c3.429,1.835,7.109,3.667,11.038,5.499c3.929,1.832,7.606,4.065,11.038,6.697c3.429,2.633,6.267,5.921,8.512,9.862
		c2.246,3.944,3.368,8.972,3.368,15.081c0,7.361-1.281,13.824-3.835,19.393c-2.558,5.572-6.174,10.284-10.851,14.143
		c-4.678,3.859-10.29,6.914-16.838,9.16s-13.815,3.791-21.795,4.629c-4.368,0.459-8.513,0.645-12.441,0.56
		c-3.929-0.087-7.577-0.326-10.944-0.721c-3.368-0.394-6.332-0.924-8.887-1.591c-2.558-0.667-4.583-1.357-6.081-2.074l12.535-23.02
		c1.246,0.638,2.868,1.297,4.864,1.982c1.994,0.685,4.271,1.278,6.829,1.775c2.555,0.498,5.332,0.846,8.326,1.043
		c2.993,0.197,5.986,0.137,8.98-0.178c3.49-0.367,6.796-0.996,9.916-1.887c3.116-0.893,5.829-2.119,8.138-3.677
		c2.307-1.558,4.116-3.411,5.426-5.555c1.31-2.143,1.964-4.724,1.964-7.733c0-3.385-1.123-6.15-3.368-8.296
		c-2.245-2.147-5.083-4.105-8.512-5.879c-3.432-1.771-7.109-3.603-11.039-5.499c-3.928-1.894-7.609-4.219-11.038-6.978
		c-3.433-2.755-6.268-6.231-8.513-10.424c-2.245-4.19-3.368-9.468-3.368-15.829c0-7.232,1.277-13.541,3.835-18.925
		c2.555-5.382,6.016-9.922,10.383-13.626c4.365-3.701,9.478-6.608,15.341-8.722c5.861-2.112,12.161-3.523,18.896-4.231
		c3.616-0.38,7.232-0.573,10.851-0.579c3.616-0.006,7.045,0.166,10.29,0.508c3.242,0.347,6.235,0.841,8.98,1.489
		c2.742,0.647,5.052,1.433,6.922,2.359L115.828,132.652z"/>
	<path fill="#FFFFFF" d="M148.567,104.141c5.239-1.547,10.819-2.915,16.744-4.098c5.922-1.184,11.88-2.091,17.867-2.72
		c6.361-0.668,12.254-0.572,17.68,0.29c5.425,0.861,10.164,2.57,14.218,5.133c4.052,2.561,7.203,6.056,9.448,10.486
		c2.245,4.432,3.367,9.883,3.367,16.355c0,9.711-1.684,18.009-5.051,24.896s-7.829,12.644-13.376,17.273
		c-5.552,4.629-11.88,8.159-18.99,10.584c-7.109,2.429-14.344,4.027-21.702,4.801c-0.625,0.066-1.59,0.168-2.9,0.305
		c-1.31,0.139-2.684,0.254-4.116,0.34c-1.435,0.089-2.806,0.139-4.116,0.152s-2.277-0.01-2.9-0.07l-9.354,46.258l-24.322,2.557
		L148.567,104.141z M159.605,165.465c0.497,0.074,1.184,0.126,2.058,0.161c0.871,0.035,1.838,0.026,2.899-0.024
		c1.058-0.047,2.058-0.123,2.994-0.221c0.935-0.098,1.651-0.173,2.151-0.226c4.239-0.445,8.325-1.343,12.254-2.697
		c3.929-1.351,7.39-3.217,10.383-5.599c2.993-2.382,5.394-5.357,7.203-8.931c1.806-3.572,2.712-7.801,2.712-12.686
		c0-3.631-0.593-6.576-1.777-8.831c-1.187-2.255-2.777-3.936-4.771-5.042c-1.997-1.105-4.335-1.766-7.016-1.987
		c-2.684-0.218-5.519-0.171-8.512,0.144c-2.245,0.236-4.396,0.559-6.455,0.962c-2.058,0.404-3.773,0.803-5.145,1.196
		L159.605,165.465z"/>
	<path fill="#FFFFFF" d="M251.463,93.326c5.986-1.751,12.034-3.196,18.147-4.339c6.11-1.139,11.6-1.967,16.464-2.479
		c5.735-0.603,11.16-0.487,16.276,0.347c5.112,0.837,9.541,2.458,13.282,4.872c3.742,2.412,6.703,5.72,8.887,9.917
		c2.182,4.2,3.275,9.291,3.275,15.278c0,6.86-1.03,12.924-3.088,18.191c-2.058,5.268-4.771,9.794-8.138,13.578
		c-3.368,3.786-7.203,6.87-11.506,9.253c-4.304,2.388-8.7,4.127-13.19,5.222l7.297,5.033l18.147,47.857l-26.94,2.832l-17.961-49.375
		l-12.908-1.076l-11.225,54.875l-24.322,2.557L251.463,93.326z M263.249,150.646l9.916-1.042c3.616-0.38,7.17-1.096,10.664-2.15
		c3.49-1.05,6.577-2.623,9.26-4.714c2.681-2.088,4.865-4.721,6.549-7.892c1.684-3.17,2.525-7.062,2.525-11.677
		c0-4.239-1.436-7.736-4.303-10.492c-2.87-2.754-7.483-3.797-13.844-3.129c-2.497,0.262-4.836,0.602-7.017,1.018
		c-2.183,0.417-4.022,0.829-5.519,1.235L263.249,150.646z"/>
	<path fill="#FFFFFF" d="M363.715,80.218l24.134-2.537L360.16,211.552l-24.135,2.537L363.715,80.218z"/>
	<path fill="#FFFFFF" d="M431.44,135.587l-6.174-20.305l-0.936,0.098l-1.685,21.131L408.241,206.5l-23.011,2.418l28.062-134.846
		l16.838-1.77l32.18,66.588l5.8,19.783l1.123-0.118l1.309-20.53l14.78-70.588l23.012-2.419L480.27,199.865l-16.838,1.77
		L431.44,135.587z"/>
	<path fill="#FFFFFF" d="M568.573,121.361l39.288-4.129L595.514,176.9c-5.612,4.958-11.506,8.757-17.679,11.4
		c-6.174,2.642-12.816,4.34-19.926,5.087c-6.86,0.722-13.188,0.2-18.989-1.559c-5.8-1.759-10.821-4.663-15.061-8.707
		c-4.241-4.043-7.547-9.245-9.915-15.608c-2.37-6.36-3.555-13.781-3.555-22.264c0-14.341,1.964-26.959,5.894-37.849
		c3.929-10.891,9.261-20.086,15.996-27.594c6.734-7.503,14.593-13.349,23.572-17.538c8.98-4.185,18.458-6.804,28.437-7.853
		c7.109-0.747,13.439-0.819,18.99-0.219c5.548,0.604,9.758,1.378,12.628,2.321l-9.729,22.537c-2.618-0.97-5.894-1.625-9.822-1.961
		c-3.928-0.335-8.699-0.208-14.312,0.382c-6.613,0.695-12.722,2.585-18.334,5.668c-5.613,3.086-10.478,7.275-14.593,12.572
		c-4.116,5.297-7.329,11.654-9.636,19.066c-2.31,7.417-3.461,15.738-3.461,24.966c0,10.354,2.433,18.204,7.297,23.555
		c4.863,5.352,11.412,7.593,19.644,6.728c6.109-0.642,11.474-2.765,16.09-6.369l5.237-25.433l-19.082-0.988L568.573,121.361z"/>
</g>
</svg>
