<?xml version="1.0" encoding="utf-8"?>
<!-- Generator: Adobe Illustrator 16.0.0, SVG Export Plug-In . SVG Version: 6.00 Build 0)  -->
<!DOCTYPE svg PUBLIC "-//W3C//DTD SVG 1.1//EN" "http://www.w3.org/Graphics/SVG/1.1/DTD/svg11.dtd">
<svg version="1.1" id="Layer_1" xmlns="http://www.w3.org/2000/svg" xmlns:xlink="http://www.w3.org/1999/xlink" x="0px" y="0px"
	 width="636.997px" height="356.735px" viewBox="0 0 636.997 356.735" enable-background="new 0 0 636.997 356.735"
	 xml:space="preserve">
<linearGradient id="SEASON_field_2_" gradientUnits="userSpaceOnUse" x1="54.4629" y1="283.2749" x2="583.8789" y2="283.2749" gradientTransform="matrix(1 -0.1051 -0.1405 1.0148 40.1822 31.2878)">
	<stop  offset="0" style="stop-color:#B7CF22;stop-opacity:0"/>
	<stop  offset="0.4" style="stop-color:#B7CF22"/>
	<stop  offset="1" style="stop-color:#509844"/>
</linearGradient>
<path id="SEASON_field_1_" fill="url(#SEASON_field_2_)" d="M579.583,291.16c-0.843,6.081-6.385,11.523-12.378,12.152
	l-507.71,53.363c-5.993,0.63-10.169-3.791-9.327-9.873l9.354-67.542c0.842-6.082,6.383-11.523,12.376-12.153l507.71-53.363
	c5.993-0.629,10.17,3.791,9.327,9.873L579.583,291.16z"/>
<text transform="matrix(0.9253 -0.0973 0 1 300.0474 317.105)" fill="#FFFFFF" font-family="'PTSans-BoldItalic'" font-size="85.9211">SEASON</text>
<text transform="matrix(1 -0.1051 0 1 70.9097 83.0684)" fill="#FFFFFF" font-family="'PTSans-BoldItalic'" font-size="65.6753">HORIZON</text>
<linearGradient id="SPRING_stroke_1_" gradientUnits="userSpaceOnUse" x1="0" y1="150.0679" x2="636.9971" y2="150.0679">
	<stop  offset="0" style="stop-color:#B7CF22"/>
	<stop  offset="1" style="stop-color:#509844"/>
</linearGradient>
<path id="SPRING_stroke" fill="url(#SPRING_stroke_1_)" d="M636.997,47.045l-16.21-5.326c-3.94-1.294-9.11-2.279-15.818-3.009
	c-6.635-0.717-14.114-0.646-22.296,0.213c-11.646,1.224-22.881,4.329-33.398,9.229c-9.369,4.371-17.811,10.304-25.165,17.658
	l3.854-18.518l-55.559,5.839l-10.343,49.398l-22.647-46.866l-88.646,10.253l-8.361,40.425c-0.828-4.288-2.165-8.268-4.042-11.88
	c-3.439-6.613-8.24-11.937-14.266-15.823c-5.529-3.567-11.996-5.976-19.227-7.158c-6.457-1.053-13.33-1.21-20.415-0.465
	c-5.235,0.55-11.187,1.444-17.698,2.658c-6.601,1.234-13.215,2.815-19.66,4.701l-8.985,2.629l-3.846,18.535
	c-2.994-3.94-6.614-7.283-10.849-9.959c-5.832-3.687-12.596-6.16-20.101-7.352c-6.749-1.072-14.07-1.206-21.756-0.398
	c-6.438,0.676-12.929,1.665-19.291,2.937c-6.335,1.265-12.428,2.757-18.107,4.434l-8.953,2.644l-0.81,3.901
	c-2.79-1.311-5.913-2.381-9.558-3.242c-3.353-0.79-7.02-1.401-10.919-1.818c-3.735-0.395-7.688-0.595-11.75-0.595l-0.206,0
	c-4.142,0.007-8.332,0.23-12.452,0.664c-7.949,0.835-15.537,2.541-22.553,5.069c-7.592,2.736-14.368,6.604-20.14,11.5
	c-6.047,5.128-10.886,11.464-14.381,18.827c-3.546,7.464-5.344,16.082-5.344,25.614c0,8.93,1.755,16.733,5.214,23.188
	c3.234,6.039,7.438,11.161,12.483,15.212c4.333,3.487,9.058,6.473,14.034,8.871c3.79,1.83,7.379,3.618,10.653,5.307
	c0.751,0.389,1.453,0.786,2.097,1.188c-0.804,0.424-1.765,0.797-2.868,1.112c-2.237,0.64-4.679,1.101-7.264,1.372
	c-2.102,0.222-4.224,0.264-6.322,0.126c-2.327-0.153-4.471-0.419-6.376-0.79c-1.829-0.355-3.421-0.764-4.745-1.219
	c-1.815-0.623-2.615-1.009-2.817-1.112l-13.529-6.926L0,248.895l14.825,7.089c2.422,1.158,5.326,2.171,8.862,3.092
	c3.275,0.855,6.879,1.508,11.016,1.992c3.827,0.448,8.003,0.726,12.426,0.823c0.723,0.016,1.453,0.023,2.188,0.023
	c3.909,0,8.019-0.224,12.216-0.665c9.11-0.957,17.598-2.771,25.224-5.388c5.866-2.013,11.225-4.613,16.028-7.74l-1.31,6.312
	l56.937-5.985l9.199-45.492l2.802-0.296c8.489-0.891,16.939-2.76,25.105-5.551c7.569-2.581,14.529-6.236,20.758-10.871
	l-11.906,57.379l56.91-5.98l6.959-34.02l11.663,32.062l36.546-3.841v0.001l18.057-1.897l4.577-0.481l0,0l26.544-2.79l0,0
	l55.599-5.845l10.194-49.529l22.767,47.001l39.042-4.103l7.756-37.27c3.065,6.843,7.125,12.723,12.125,17.489
	c6.003,5.729,13.17,9.885,21.3,12.349c5.567,1.688,11.514,2.544,17.674,2.544c2.436,0,4.948-0.135,7.469-0.399
	c8.618-0.905,16.836-3.011,24.433-6.26c7.674-3.286,15.03-8.012,21.863-14.047l3.894-3.439l17.725-85.65l-12.821-0.686
	L636.997,47.045z"/>
<text transform="matrix(1 -0.1051 0 1 21.9248 247.1167)" fill="#FFFFFF" font-family="'PTSans-BoldItalic'" font-size="187.0866">SPRING</text>
</svg>
