<?xml version="1.0" encoding="utf-8"?>
<!-- Generator: Adobe Illustrator 16.0.0, SVG Export Plug-In . SVG Version: 6.00 Build 0)  -->
<!DOCTYPE svg PUBLIC "-//W3C//DTD SVG 1.1//EN" "http://www.w3.org/Graphics/SVG/1.1/DTD/svg11.dtd">
<svg version="1.1" id="Layer_1" xmlns="http://www.w3.org/2000/svg" xmlns:xlink="http://www.w3.org/1999/xlink" x="0px" y="0px"
	 width="663.5px" height="356.735px" viewBox="0 0 663.5 356.735" enable-background="new 0 0 663.5 356.735" xml:space="preserve">
<linearGradient id="SEASON_field_2_" gradientUnits="userSpaceOnUse" x1="96.2026" y1="283.2749" x2="625.6187" y2="283.2749" gradientTransform="matrix(1 -0.1051 -0.1405 1.0148 40.1822 35.6747)">
	<stop  offset="0" style="stop-color:#F8B732;stop-opacity:0"/>
	<stop  offset="0.4632" style="stop-color:#F8B732;stop-opacity:0.9"/>
	<stop  offset="0.4838" style="stop-color:#F7B232;stop-opacity:0.9038"/>
	<stop  offset="0.6177" style="stop-color:#F49431;stop-opacity:0.9288"/>
	<stop  offset="0.7499" style="stop-color:#F27F30;stop-opacity:0.9534"/>
	<stop  offset="0.8787" style="stop-color:#F07230;stop-opacity:0.9774"/>
	<stop  offset="1" style="stop-color:#F06E30"/>
</linearGradient>
<path id="SEASON_field_1_" fill="url(#SEASON_field_2_)" d="M621.323,291.16c-0.843,6.081-6.385,11.523-12.378,12.152
	l-507.71,53.363c-5.993,0.63-10.169-3.791-9.327-9.873l9.354-67.542c0.842-6.082,6.383-11.523,12.376-12.153l507.71-53.363
	c5.993-0.629,10.17,3.791,9.327,9.873L621.323,291.16z"/>
<g>
	<path fill="#FFFFFF" d="M381.696,264.88c-1.008-0.601-2.492-1.164-4.452-1.693c-1.962-0.529-4.134-0.669-6.519-0.419
		c-1.22,0.129-2.413,0.384-3.578,0.766c-1.167,0.382-2.2,0.908-3.1,1.578c-0.902,0.671-1.618,1.495-2.146,2.472
		c-0.531,0.977-0.795,2.1-0.795,3.365c0,1.67,0.477,3.03,1.431,4.083c0.955,1.051,2.159,2.005,3.618,2.858
		c1.457,0.855,3.021,1.71,4.689,2.566c1.67,0.854,3.232,1.894,4.691,3.115c1.457,1.222,2.663,2.741,3.617,4.56
		c0.954,1.82,1.431,4.132,1.431,6.938c0,3.38-0.543,6.344-1.629,8.893c-1.087,2.55-2.625,4.7-4.611,6.456
		c-1.987,1.755-4.373,3.138-7.155,4.146c-2.783,1.009-5.871,1.691-9.261,2.048c-1.856,0.195-3.618,0.265-5.288,0.212
		c-1.669-0.054-3.219-0.178-4.65-0.371c-1.432-0.192-2.691-0.447-3.776-0.763c-1.087-0.315-1.948-0.639-2.584-0.975l5.327-10.526
		c0.528,0.298,1.218,0.606,2.067,0.928c0.847,0.322,1.815,0.604,2.902,0.841c1.085,0.237,2.266,0.407,3.537,0.509
		c1.272,0.101,2.545,0.084,3.816-0.049c1.483-0.156,2.889-0.433,4.214-0.832c1.324-0.398,2.477-0.952,3.458-1.658
		c0.981-0.708,1.75-1.552,2.305-2.531c0.557-0.979,0.836-2.162,0.836-3.545c0-1.555-0.478-2.829-1.432-3.822
		c-0.954-0.993-2.16-1.904-3.617-2.73c-1.458-0.825-3.021-1.681-4.691-2.565c-1.669-0.884-3.233-1.965-4.69-3.244
		c-1.458-1.278-2.663-2.885-3.618-4.818c-0.954-1.932-1.431-4.36-1.431-7.282c0-3.321,0.543-6.213,1.63-8.677
		c1.085-2.462,2.556-4.535,4.412-6.221c1.855-1.684,4.028-3.001,6.519-3.95c2.491-0.949,5.168-1.574,8.03-1.875
		c1.537-0.161,3.073-0.237,4.61-0.227c1.538,0.01,2.994,0.102,4.373,0.271c1.378,0.171,2.65,0.409,3.816,0.716
		c1.165,0.308,2.146,0.676,2.941,1.108L381.696,264.88z"/>
	<path fill="#FFFFFF" d="M395.687,251.295l10.335-1.087l20.987-2.205l-2.066,10.699l-20.987,2.206l-2.783,14.297l19.159-2.014
		l-2.146,10.708l-19.001,1.997l-2.94,15.002l21.385-2.248l-1.986,10.691l-21.387,2.248l-10.334,1.086L395.687,251.295z"/>
	<path fill="#FFFFFF" d="M453.084,292.089l-16.217,1.705l-6.599,14.011l-10.972,1.153l30.926-63.825l7.632-0.802l7.235,59.813
		l-10.416,1.095L453.084,292.089z M441.398,283.866l11.29-1.187l-1.272-13.27l0.079-9.46l-0.396,0.042l-3.18,9.871L441.398,283.866z
		"/>
	<path fill="#FFFFFF" d="M508.496,251.552c-1.009-0.6-2.492-1.163-4.452-1.693c-1.962-0.528-4.135-0.668-6.519-0.418
		c-1.22,0.128-2.413,0.384-3.578,0.766c-1.167,0.382-2.2,0.908-3.101,1.578c-0.902,0.671-1.618,1.495-2.146,2.472
		c-0.531,0.977-0.795,2.099-0.795,3.364c0,1.67,0.477,3.031,1.431,4.084c0.954,1.051,2.159,2.005,3.617,2.858
		c1.457,0.854,3.021,1.71,4.69,2.565s3.232,1.895,4.69,3.115c1.457,1.223,2.663,2.742,3.617,4.561
		c0.955,1.819,1.432,4.132,1.432,6.938c0,3.38-0.544,6.344-1.63,8.893c-1.087,2.55-2.624,4.7-4.611,6.456
		c-1.987,1.755-4.372,3.137-7.154,4.146c-2.783,1.008-5.871,1.691-9.262,2.048c-1.856,0.195-3.618,0.265-5.287,0.212
		c-1.67-0.054-3.22-0.178-4.65-0.371c-1.432-0.193-2.691-0.447-3.776-0.763c-1.088-0.315-1.948-0.64-2.584-0.975l5.327-10.527
		c0.528,0.299,1.218,0.606,2.066,0.929c0.847,0.322,1.815,0.604,2.902,0.841c1.085,0.237,2.266,0.407,3.537,0.509
		c1.272,0.101,2.544,0.084,3.815-0.05c1.483-0.155,2.889-0.433,4.214-0.831c1.324-0.398,2.477-0.952,3.458-1.658
		c0.98-0.708,1.749-1.553,2.306-2.532c0.557-0.979,0.835-2.161,0.835-3.544c0-1.555-0.477-2.829-1.432-3.822
		c-0.953-0.994-2.16-1.904-3.616-2.73c-1.459-0.825-3.021-1.681-4.691-2.565c-1.669-0.885-3.233-1.965-4.689-3.244
		c-1.459-1.278-2.663-2.885-3.618-4.818c-0.954-1.932-1.431-4.36-1.431-7.282c0-3.321,0.543-6.214,1.63-8.677
		c1.086-2.462,2.557-4.536,4.412-6.221c1.855-1.684,4.027-3.001,6.519-3.95s5.168-1.574,8.03-1.875
		c1.536-0.162,3.073-0.237,4.61-0.227c1.537,0.01,2.994,0.101,4.372,0.271c1.378,0.171,2.65,0.409,3.817,0.716
		c1.164,0.308,2.146,0.676,2.94,1.108L508.496,251.552z"/>
	<path fill="#FFFFFF" d="M513.742,276.52c0-5.327,0.675-10.425,2.027-15.292c1.352-4.868,3.271-9.194,5.764-12.979
		c2.49-3.785,5.497-6.879,9.022-9.283c3.524-2.402,7.46-3.834,11.807-4.291c2.861-0.301,5.445-0.113,7.751,0.561
		c2.306,0.675,4.266,1.886,5.883,3.635c1.616,1.75,2.874,4.037,3.775,6.863c0.901,2.827,1.353,6.245,1.353,10.254
		c0,5.386-0.676,10.526-2.027,15.421c-1.352,4.898-3.26,9.266-5.724,13.104c-2.466,3.84-5.406,6.97-8.825,9.391
		c-3.418,2.422-7.194,3.85-11.329,4.284c-6.253,0.658-11.05-0.828-14.39-4.459C515.49,290.099,513.793,284.363,513.742,276.52z
		 M524.633,275.031c0,4.125,0.728,7.343,2.186,9.652c1.457,2.31,3.856,3.289,7.195,2.938c2.437-0.256,4.65-1.276,6.638-3.062
		c1.987-1.783,3.696-4.082,5.128-6.896c1.431-2.814,2.53-5.979,3.3-9.498c0.767-3.517,1.152-7.137,1.152-10.861
		c0-4.523-0.822-7.731-2.465-9.621c-1.644-1.89-3.896-2.684-6.758-2.383c-2.384,0.25-4.57,1.226-6.559,2.924
		c-1.987,1.698-3.71,3.898-5.167,6.6c-1.458,2.703-2.598,5.801-3.418,9.296C525.042,267.614,524.633,271.251,524.633,275.031z"/>
	<path fill="#FFFFFF" d="M581.555,260.457l-2.625-9.348l-0.396,0.042l-0.716,9.698l-6.122,32.091l-9.778,1.028l11.926-61.828
		l7.155-0.752l13.673,30.697l2.465,9.106l0.477-0.05l0.557-9.424l6.28-32.365l9.778-1.027l-11.925,61.827l-7.154,0.752
		L581.555,260.457z"/>
</g>
<linearGradient id="SUMMER_stroke_1_" gradientUnits="userSpaceOnUse" x1="0" y1="152.8813" x2="663.4995" y2="152.8813">
	<stop  offset="0" style="stop-color:#F8B732"/>
	<stop  offset="0.213" style="stop-color:#F7AE32"/>
	<stop  offset="0.5603" style="stop-color:#F49631"/>
	<stop  offset="0.9965" style="stop-color:#F06E30"/>
	<stop  offset="1" style="stop-color:#F06E30"/>
</linearGradient>
<path id="SUMMER_stroke" fill="url(#SUMMER_stroke_1_)" d="M650.131,127.805c4.083-5.276,7.37-11.563,9.771-18.684
	c2.387-7.079,3.598-15.163,3.598-24.027c0-8.434-1.44-15.967-4.283-22.398c-3.022-6.827-7.312-12.41-12.754-16.597
	c-5.228-4.02-11.38-6.787-18.3-8.228c-6.161-1.277-12.718-1.567-19.451-0.859c-4.815,0.506-10.283,1.368-16.262,2.562
	c-4.206,0.844-8.413,1.877-12.572,3.062l0.115-0.643l-98.678,10.372l0,0l-37.706,3.962l-32.935,55.192l-14.562-50.2l-32.285,3.393
	l0,0l-0.249,0.026l-11.473,1.206l0,0L314.4,69.91l-32.936,55.193l-14.562-50.201L232.3,78.54l-49.654,5.219l-7.365,0.774
	l-53.95,5.67l-1.093,6.09c-1.8-0.794-3.729-1.505-5.855-2.128c-3.164-0.924-6.617-1.655-10.285-2.176
	c-3.565-0.501-7.332-0.785-11.197-0.845c-3.87-0.061-7.782,0.116-11.639,0.522c-7.479,0.786-14.615,2.532-21.205,5.187
	c-7.136,2.872-13.479,6.974-18.855,12.193c-5.46,5.303-9.805,11.833-12.911,19.404c-3.066,7.471-4.621,16.126-4.621,25.723
	c0,8.897,1.494,16.682,4.436,23.13c2.844,6.242,6.577,11.59,11.083,15.885c3.962,3.785,8.299,7.053,12.887,9.711
	c3.395,1.969,6.61,3.892,9.544,5.708c1.303,0.808,2.407,1.631,3.298,2.459c-0.012,0.144-0.027,0.252-0.04,0.326
	c-0.098,0.141-0.248,0.306-0.505,0.504c-0.622,0.479-1.47,0.89-2.524,1.223c-1.787,0.565-3.757,0.964-5.854,1.185
	c-1.67,0.175-3.346,0.184-4.995,0.03c-1.929-0.182-3.698-0.468-5.267-0.851c-1.495-0.365-2.782-0.771-3.846-1.216
	c-1.501-0.625-2.113-0.986-2.22-1.052l-14.841-9.109L0,254.815l12.446,7.164c2.325,1.338,5.101,2.517,8.471,3.598
	c3.109,1.002,6.514,1.78,10.411,2.381c3.574,0.55,7.462,0.918,11.565,1.095c1.166,0.05,2.362,0.075,3.555,0.075
	c3.199,0,6.543-0.181,9.941-0.538c8.499-0.894,16.426-2.73,23.564-5.461c7.782-2.976,14.611-7.208,20.296-12.577
	c3.405-3.216,6.356-6.876,8.86-10.921c1.438,2.246,3.073,4.34,4.921,6.256c4.773,4.956,10.812,8.511,17.939,10.563
	c4.33,1.249,9.187,1.883,14.436,1.883c2.545,0,5.246-0.148,8.025-0.441c8.346-0.877,15.947-2.828,22.593-5.8
	c6.567-2.937,12.399-7.147,17.382-12.507l-2.131,11.973l52.995-5.569l33.92-3.564l54.019-5.678v-0.001l41.271-4.337l33.921-3.565
	l54.018-5.678v-0.001l87.833-9.23v-0.001l39.378-4.139l5.041-28.639l8.449,27.222l56.105-5.897l-20.535-63.483
	C642.921,135.916,646.759,132.163,650.131,127.805z"/>
<g>
	<path fill="#FFFFFF" d="M99.418,136.455c-2.157-1.404-5.335-2.731-9.533-3.989c-4.2-1.258-8.852-1.619-13.958-1.082
		c-2.612,0.275-5.166,0.844-7.661,1.705c-2.498,0.861-4.71,2.058-6.639,3.59c-1.931,1.533-3.463,3.424-4.596,5.67
		c-1.135,2.246-1.702,4.833-1.702,7.757c0,3.856,1.021,7.008,3.064,9.454c2.042,2.445,4.623,4.669,7.745,6.667
		c3.12,2,6.469,4.001,10.043,6.007c3.575,2.005,6.921,4.432,10.043,7.278c3.12,2.847,5.703,6.379,7.746,10.595
		c2.043,4.22,3.064,9.567,3.064,16.048c0,7.807-1.165,14.642-3.489,20.507c-2.328,5.868-5.618,10.81-9.874,14.829
		c-4.255,4.019-9.362,7.169-15.32,9.448c-5.958,2.278-12.57,3.801-19.831,4.564c-3.974,0.418-7.745,0.548-11.32,0.396
		c-3.575-0.154-6.895-0.466-9.958-0.938c-3.063-0.472-5.761-1.081-8.085-1.829c-2.328-0.747-4.171-1.512-5.532-2.295l11.405-24.217
		c1.133,0.696,2.609,1.423,4.426,2.18c1.814,0.759,3.886,1.423,6.213,1.991c2.325,0.568,4.852,0.981,7.575,1.238
		c2.724,0.256,5.448,0.24,8.171-0.047c3.176-0.334,6.184-0.947,9.022-1.844c2.835-0.896,5.304-2.154,7.405-3.771
		c2.098-1.615,3.745-3.553,4.937-5.805c1.191-2.251,1.787-4.978,1.787-8.171c0-3.59-1.021-6.539-3.063-8.853
		c-2.043-2.311-4.625-4.434-7.746-6.369c-3.123-1.932-6.469-3.934-10.043-6.007c-3.575-2.07-6.923-4.596-10.043-7.576
		c-3.123-2.977-5.703-6.708-7.746-11.191c-2.042-4.479-3.064-10.095-3.064-16.841c0-7.671,1.162-14.341,3.489-20.011
		c2.325-5.667,5.474-10.428,9.448-14.287c3.971-3.856,8.623-6.859,13.958-9.008c5.333-2.147,11.064-3.544,17.193-4.188
		c3.29-0.346,6.581-0.494,9.873-0.442c3.291,0.051,6.41,0.288,9.362,0.703c2.95,0.418,5.673,0.991,8.171,1.72
		c2.495,0.73,4.596,1.601,6.298,2.613L99.418,136.455z"/>
	<path fill="#FFFFFF" d="M191.168,98.833l20.768-2.183l-16.172,91.388c-1.702,9.703-3.916,17.973-6.639,24.807
		c-2.724,6.834-6.017,12.506-9.873,17.01c-3.859,4.509-8.4,7.928-13.618,10.262c-5.221,2.335-11.235,3.859-18.044,4.575
		c-6.583,0.692-12.145,0.384-16.682-0.925c-4.541-1.309-8.256-3.464-11.149-6.467c-2.894-3.002-4.996-6.685-6.299-11.047
		c-1.306-4.357-1.958-9.25-1.958-14.676c0-2.645,0.141-5.372,0.426-8.18c0.282-2.808,0.708-5.761,1.277-8.865l16.001-89.187
		l21.959-2.308l-15.661,88.953c-0.909,5.125-1.362,9.271-1.362,12.446c0,6.35,1.418,10.699,4.256,13.045
		c2.835,2.35,6.979,3.234,12.426,2.662c6.809-0.716,12.086-3.583,15.831-8.608c3.745-5.022,6.58-12.796,8.511-23.316L191.168,98.833
		z"/>
	<path fill="#FFFFFF" d="M307.601,153.465l7.49-28.17l-1.022,0.107l-11.234,23.603L269.3,203.921l-6.979,0.734L246.32,154.35
		l-3.064-21.505l-0.851,0.089l-1.703,27.363l-13.107,73.604l-20.938,2.201l25.193-141.545l19.576-2.058l17.874,61.617l2.213,15.642
		l0.851-0.089l7.83-17.095l40.174-67.321l21.278-2.237l-25.194,141.546l-21.959,2.308L307.601,153.465z"/>
	<path fill="#FFFFFF" d="M438.164,139.742l7.49-28.17l-1.021,0.107l-11.234,23.603l-33.535,54.917l-6.979,0.734l-16-50.306
		l-3.064-21.505l-0.852,0.089l-1.701,27.364l-13.108,73.604l-20.938,2.201l25.194-141.546l19.576-2.058l17.873,61.618l2.214,15.641
		l0.851-0.089l7.831-17.094l40.173-67.321l21.278-2.236l-25.193,141.545l-21.959,2.309L438.164,139.742z"/>
	<path fill="#FFFFFF" d="M492.977,67.112l22.129-2.326l44.939-4.724l-4.426,24.673l-44.939,4.724l-5.959,32.969l41.025-4.312
		l-4.597,24.691l-40.684,4.276l-6.298,34.592l45.791-4.812l-4.256,24.655l-45.791,4.813l-22.13,2.326L492.977,67.112z"/>
	<path fill="#FFFFFF" d="M578.427,59.519c5.448-1.763,10.951-3.2,16.513-4.315c5.559-1.111,10.555-1.903,14.98-2.368
		c5.218-0.549,10.155-0.339,14.809,0.626c4.652,0.968,8.682,2.758,12.086,5.377c3.405,2.619,6.1,6.173,8.086,10.659
		c1.984,4.488,2.979,9.906,2.979,16.255c0,7.276-0.937,13.69-2.81,19.244c-1.872,5.554-4.34,10.312-7.404,14.271
		c-3.063,3.962-6.554,7.171-10.469,9.633c-3.916,2.464-7.916,4.239-12.001,5.329l6.64,5.454l16.511,51.046l-24.512,2.576
		l-16.342-52.65l-11.746-1.346l-10.213,58.021l-22.13,2.326L578.427,59.519z M589.152,120.499l9.022-0.948
		c3.291-0.346,6.524-1.049,9.702-2.112c3.176-1.059,5.985-2.678,8.427-4.853c2.439-2.173,4.426-4.93,5.958-8.266
		s2.298-7.45,2.298-12.346c0-4.495-1.306-8.227-3.915-11.196c-2.612-2.966-6.809-4.146-12.597-3.537
		c-2.271,0.239-4.399,0.561-6.384,0.969c-1.986,0.407-3.659,0.815-5.021,1.222L589.152,120.499z"/>
</g>
<g>
	<path fill="#FFFFFF" d="M142.532,60.685l-15.959,1.677l-4.072,19.671l-8.538,0.897l9.72-46.994l8.538-0.897l-3.941,19.132
		l15.959-1.678l3.941-19.132l8.538-0.897l-9.72,46.995l-8.538,0.897L142.532,60.685z"/>
	<path fill="#FFFFFF" d="M157.439,61.154c0-4.071,0.559-7.973,1.675-11.703c1.117-3.729,2.703-7.047,4.761-9.958
		c2.058-2.908,4.542-5.292,7.454-7.153c2.911-1.86,6.163-2.979,9.753-3.357c2.365-0.249,4.499-0.122,6.403,0.377
		c1.904,0.501,3.524,1.415,4.86,2.74c1.335,1.328,2.375,3.068,3.12,5.222c0.745,2.155,1.117,4.765,1.117,7.83
		c0,4.115-0.558,8.049-1.675,11.8c-1.116,3.752-2.692,7.103-4.729,10.053c-2.036,2.951-4.466,5.362-7.29,7.235
		c-2.824,1.874-5.943,2.99-9.359,3.349c-5.167,0.543-9.129-0.562-11.887-3.315C158.885,71.521,157.483,67.148,157.439,61.154z
		 M166.437,59.945c0,3.152,0.602,5.608,1.806,7.363c1.204,1.756,3.185,2.49,5.943,2.2c2.013-0.211,3.842-1.005,5.484-2.383
		c1.642-1.376,3.054-3.145,4.236-5.305c1.182-2.161,2.09-4.587,2.726-7.281c0.634-2.694,0.952-5.463,0.952-8.31
		c0-3.458-0.679-5.905-2.036-7.339c-1.358-1.433-3.218-2.026-5.583-1.777c-1.97,0.207-3.777,0.966-5.418,2.277
		c-1.642,1.312-3.065,3.004-4.269,5.079c-1.205,2.075-2.146,4.451-2.824,7.127C166.776,54.273,166.437,57.056,166.437,59.945z"/>
	<path fill="#FFFFFF" d="M206.893,27.65c2.102-0.616,4.225-1.123,6.37-1.524c2.145-0.399,4.072-0.691,5.78-0.871
		c2.013-0.211,3.918-0.17,5.713,0.123c1.795,0.293,3.35,0.862,4.663,1.71c1.313,0.847,2.353,2.008,3.12,3.481
		c0.765,1.475,1.149,3.261,1.149,5.363c0,2.408-0.361,4.537-1.083,6.386s-1.675,3.438-2.857,4.766
		c-1.183,1.329-2.528,2.411-4.039,3.249c-1.51,0.838-3.054,1.448-4.63,1.833l2.562,1.767l6.371,16.8l-9.457,0.994l-6.305-17.333
		l-4.532-0.377l-3.94,19.263l-8.538,0.897L206.893,27.65z M211.03,47.771l3.481-0.366c1.27-0.133,2.518-0.385,3.744-0.754
		c1.225-0.369,2.309-0.921,3.251-1.655c0.94-0.733,1.708-1.658,2.298-2.771c0.591-1.113,0.887-2.479,0.887-4.099
		c0-1.488-0.504-2.716-1.511-3.683c-1.007-0.966-2.626-1.333-4.86-1.099c-0.876,0.092-1.697,0.211-2.462,0.357
		c-0.767,0.146-1.412,0.291-1.938,0.433L211.03,47.771z"/>
	<path fill="#FFFFFF" d="M246.298,23.048l8.472-0.89l-9.72,46.994l-8.472,0.891L246.298,23.048z"/>
	<path fill="#FFFFFF" d="M253.523,60.249l23.643-29.805l3.809-3.027l-21.082,2.216l1.642-8.185l30.277-3.182l-1.642,8.185
		l-23.774,30.016l-3.678,2.816l21.082-2.216l-1.708,8.192l-30.276,3.182L253.523,60.249z"/>
	<path fill="#FFFFFF" d="M288.855,47.341c0-4.071,0.559-7.973,1.675-11.703c1.117-3.729,2.703-7.048,4.761-9.958
		c2.058-2.909,4.542-5.292,7.454-7.153c2.911-1.86,6.163-2.98,9.753-3.357c2.365-0.249,4.499-0.121,6.403,0.378
		c1.904,0.501,3.524,1.415,4.86,2.74c1.336,1.327,2.375,3.068,3.119,5.222c0.744,2.155,1.117,4.766,1.117,7.83
		c0,4.115-0.557,8.049-1.674,11.8c-1.117,3.752-2.692,7.104-4.729,10.053c-2.036,2.952-4.466,5.362-7.29,7.235
		c-2.824,1.874-5.943,2.99-9.359,3.349c-5.167,0.543-9.129-0.562-11.887-3.315C290.301,57.709,288.899,53.335,288.855,47.341z
		 M297.853,46.133c0,3.152,0.602,5.608,1.806,7.363c1.204,1.756,3.185,2.489,5.943,2.2c2.013-0.212,3.842-1.005,5.484-2.383
		c1.642-1.375,3.054-3.144,4.236-5.305c1.182-2.16,2.09-4.587,2.726-7.28c0.634-2.695,0.952-5.463,0.952-8.31
		c0-3.458-0.679-5.905-2.036-7.339c-1.358-1.434-3.218-2.026-5.583-1.777c-1.97,0.207-3.777,0.966-5.418,2.277
		c-1.642,1.311-3.065,3.004-4.269,5.079c-1.205,2.075-2.146,4.451-2.824,7.127C298.192,40.46,297.853,43.243,297.853,46.133z"/>
	<path fill="#FFFFFF" d="M344.876,34.623l-2.167-7.128l-0.329,0.035l-0.59,7.417l-5.057,24.569l-8.079,0.849l9.852-47.336
		l5.911-0.621l11.296,23.375l2.036,6.944l0.394-0.042l0.459-7.207l5.188-24.78l8.079-0.849l-9.853,47.336l-5.911,0.622
		L344.876,34.623z"/>
</g>
</svg>
