<?xml version="1.0" encoding="utf-8"?>
<!-- Generator: Adobe Illustrator 16.0.0, SVG Export Plug-In . SVG Version: 6.00 Build 0)  -->
<!DOCTYPE svg PUBLIC "-//W3C//DTD SVG 1.1//EN" "http://www.w3.org/Graphics/SVG/1.1/DTD/svg11.dtd">
<svg version="1.1" id="Layer_1" xmlns="http://www.w3.org/2000/svg" xmlns:xlink="http://www.w3.org/1999/xlink" x="0px" y="0px"
	 width="663.5px" height="356.735px" viewBox="0 0 663.5 356.735" enable-background="new 0 0 663.5 356.735" xml:space="preserve">
<linearGradient id="SEASON_field_2_" gradientUnits="userSpaceOnUse" x1="96.2026" y1="283.2749" x2="625.6187" y2="283.2749" gradientTransform="matrix(1 -0.1051 -0.1405 1.0148 40.1822 35.6747)">
	<stop  offset="0" style="stop-color:#F8B732;stop-opacity:0"/>
	<stop  offset="0.4632" style="stop-color:#F8B732;stop-opacity:0.9"/>
	<stop  offset="0.4838" style="stop-color:#F7B232;stop-opacity:0.9038"/>
	<stop  offset="0.6177" style="stop-color:#F49431;stop-opacity:0.9288"/>
	<stop  offset="0.7499" style="stop-color:#F27F30;stop-opacity:0.9534"/>
	<stop  offset="0.8787" style="stop-color:#F07230;stop-opacity:0.9774"/>
	<stop  offset="1" style="stop-color:#F06E30"/>
</linearGradient>
<path id="SEASON_field_1_" fill="url(#SEASON_field_2_)" d="M621.323,291.16c-0.843,6.081-6.385,11.523-12.378,12.152
	l-507.71,53.363c-5.993,0.63-10.169-3.791-9.327-9.873l9.354-67.542c0.842-6.082,6.383-11.523,12.376-12.153l507.71-53.363
	c5.993-0.629,10.17,3.791,9.327,9.873L621.323,291.16z"/>
<text transform="matrix(0.9253 -0.0973 0 1 341.7871 317.105)" fill="#FFFFFF" font-family="'PTSans-BoldItalic'" font-size="85.9211">SEASON</text>
<linearGradient id="SUMMER_stroke_1_" gradientUnits="userSpaceOnUse" x1="0" y1="152.8813" x2="663.4995" y2="152.8813">
	<stop  offset="0" style="stop-color:#F8B732"/>
	<stop  offset="0.213" style="stop-color:#F7AE32"/>
	<stop  offset="0.5603" style="stop-color:#F49631"/>
	<stop  offset="0.9965" style="stop-color:#F06E30"/>
	<stop  offset="1" style="stop-color:#F06E30"/>
</linearGradient>
<path id="SUMMER_stroke" fill="url(#SUMMER_stroke_1_)" d="M650.131,127.805c4.083-5.276,7.37-11.563,9.771-18.684
	c2.387-7.079,3.598-15.163,3.598-24.027c0-8.434-1.44-15.967-4.283-22.398c-3.022-6.827-7.312-12.41-12.754-16.597
	c-5.228-4.02-11.38-6.787-18.3-8.228c-6.161-1.277-12.718-1.567-19.451-0.859c-4.815,0.506-10.283,1.368-16.262,2.562
	c-4.206,0.844-8.413,1.877-12.572,3.062l0.115-0.643l-98.678,10.372l0,0l-37.706,3.962l-32.935,55.192l-14.562-50.2l-32.285,3.393
	l0,0l-0.249,0.026l-11.473,1.206l0,0L314.4,69.91l-32.936,55.193l-14.562-50.201L232.3,78.54l-49.654,5.219l-7.365,0.774
	l-53.95,5.67l-1.093,6.09c-1.8-0.794-3.729-1.505-5.855-2.128c-3.164-0.924-6.617-1.655-10.285-2.176
	c-3.565-0.501-7.332-0.785-11.197-0.845c-3.87-0.061-7.782,0.116-11.639,0.522c-7.479,0.786-14.615,2.532-21.205,5.187
	c-7.136,2.872-13.479,6.974-18.855,12.193c-5.46,5.303-9.805,11.833-12.911,19.404c-3.066,7.471-4.621,16.126-4.621,25.723
	c0,8.897,1.494,16.682,4.436,23.13c2.844,6.242,6.577,11.59,11.083,15.885c3.962,3.785,8.299,7.053,12.887,9.711
	c3.395,1.969,6.61,3.892,9.544,5.708c1.303,0.808,2.407,1.631,3.298,2.459c-0.012,0.144-0.027,0.252-0.04,0.326
	c-0.098,0.141-0.248,0.306-0.505,0.504c-0.622,0.479-1.47,0.89-2.524,1.223c-1.787,0.565-3.757,0.964-5.854,1.185
	c-1.67,0.175-3.346,0.184-4.995,0.03c-1.929-0.182-3.698-0.468-5.267-0.851c-1.495-0.365-2.782-0.771-3.846-1.216
	c-1.501-0.625-2.113-0.986-2.22-1.052l-14.841-9.109L0,254.815l12.446,7.164c2.325,1.338,5.101,2.517,8.471,3.598
	c3.109,1.002,6.514,1.78,10.411,2.381c3.574,0.55,7.462,0.918,11.565,1.095c1.166,0.05,2.362,0.075,3.555,0.075
	c3.199,0,6.543-0.181,9.941-0.538c8.499-0.894,16.426-2.73,23.564-5.461c7.782-2.976,14.611-7.208,20.296-12.577
	c3.405-3.216,6.356-6.876,8.86-10.921c1.438,2.246,3.073,4.34,4.921,6.256c4.773,4.956,10.812,8.511,17.939,10.563
	c4.33,1.249,9.187,1.883,14.436,1.883c2.545,0,5.246-0.148,8.025-0.441c8.346-0.877,15.947-2.828,22.593-5.8
	c6.567-2.937,12.399-7.147,17.382-12.507l-2.131,11.973l52.995-5.569l33.92-3.564l54.019-5.678v-0.001l41.271-4.337l33.921-3.565
	l54.018-5.678v-0.001l87.833-9.23v-0.001l39.378-4.139l5.041-28.639l8.449,27.222l56.105-5.897l-20.535-63.483
	C642.921,135.916,646.759,132.163,650.131,127.805z"/>
<text transform="matrix(0.8579 -0.0902 0 1 13.979 256.3687)" fill="#FFFFFF" font-family="'PTSans-BoldItalic'" font-size="198.4252">SUMMER</text>
<text transform="matrix(1 -0.1051 0 1 112.6494 83.0684)" fill="#FFFFFF" font-family="'PTSans-BoldItalic'" font-size="65.6753">HORIZON</text>
</svg>
